# 3ds Max Wavefront OBJ Exporter v0.97b - (c)2007 guruware
# File Created: 22.05.2020 02:50:38

#
# object pathStone01
#

v  -0.7905 -0.0394 0.0484
v  -0.7905 0.0394 0.0484
v  -0.5241 0.0394 -0.7997
v  -0.5241 -0.0394 -0.7997
v  0.7467 0.0394 -0.8726
v  0.7779 -0.0394 -0.8794
v  0.4134 -0.0394 0.4832
v  0.4134 0.0394 0.4832
v  0.1558 0.0394 0.9061
v  0.1582 -0.0394 0.9457
v  -0.7377 0.0394 0.8481
v  -0.7779 -0.0394 0.8794
v  -0.8395 -0.0394 0.4673
v  -0.7842 0.0394 0.4639
v  0.4680 0.0394 0.0331
v  0.4680 -0.0394 0.0331
v  0.3251 -0.0394 -0.9605
v  0.3251 0.0394 -0.9605
v  -0.5629 0.0394 -0.9207
v  -0.5629 -0.0394 -0.9207
v  -0.5771 -0.0394 -1.3945
v  -0.5771 0.0394 -1.3945
v  -0.5912 0.0394 -1.8683
v  -0.6383 -0.0394 -1.9186
v  0.9338 -0.0394 -2.2389
v  0.9372 0.0394 -2.1836
v  1.8239 0.0394 -1.9739
v  1.8239 -0.0394 -1.9739
v  1.9908 -0.0394 -1.5886
v  1.9908 0.0394 -1.5886
v  1.8536 0.0394 -1.3638
v  1.8750 -0.0394 -1.3221
v  1.0102 -0.0394 -1.7393
v  1.0102 0.0394 -1.7393
v  0.9604 0.0394 -1.2228
v  0.1027 0.0394 -1.5492
v  -0.1197 -0.0394 -2.1379
v  0.1027 -0.0394 -1.5492
v  -0.1197 0.0394 -2.1379
v  0.8030 -0.0394 -0.9946
v  0.8030 0.0394 -0.9946
v  0.9604 -0.0394 -1.2228
v  0.5564 0.0394 -1.6442
v  0.5564 -0.0394 -1.6442
v  0.4087 -0.0394 -2.1607
v  0.4087 0.0394 -2.1607
# 46 vertices

vn -0.9339 0.0000 -0.3574
vn 0.0019 0.0015 -1.0000
vn 0.8330 0.0066 0.5532
vn -0.1286 0.0221 0.9914
vn -0.0000 -1.0000 -0.0000
vn 0.0000 1.0000 -0.0000
vn -0.0000 1.0000 -0.0000
vn 0.9308 0.0083 0.3655
vn -0.9936 0.0166 -0.1121
vn -0.9968 0.0299 0.0736
vn 0.0000 -1.0000 -0.0000
vn 0.9835 0.0000 0.1810
vn -0.0164 0.0000 0.9999
vn -0.9998 0.0130 0.0142
vn 0.3167 0.0158 -0.9484
vn 0.8594 0.0115 0.5112
vn -0.3869 0.0199 -0.9219
vn 0.0101 0.0000 0.9999
vn 0.0709 0.0133 0.9974
vn -0.0344 0.0167 -0.9993
vn 0.9403 0.0000 -0.3405
vn -0.9995 -0.0000 -0.0313
vn 0.0180 -0.0000 -0.9998
vn 0.7869 0.0000 0.6171
# 24 vertex normals

vt 0.0001 0.5313 0.0000
vt 0.2781 0.5313 0.0000
vt 0.2786 0.6692 0.0000
vt 0.0006 0.6692 0.0000
vt 0.0000 0.9373 0.0000
vt 0.0001 0.6692 0.0000
vt 0.2132 0.6692 0.0000
vt 0.2184 0.9373 0.0000
vt 0.2787 0.2278 0.0000
vt 0.5567 0.2278 0.0000
vt 0.5568 0.3049 0.0000
vt 0.2787 0.3109 0.0000
vt 0.4840 0.9960 0.0000
vt 0.4844 0.7278 0.0000
vt 0.6334 0.7278 0.0000
vt 0.6401 0.9960 0.0000
vt 0.6945 0.5885 0.0000
vt 0.8978 0.5387 0.0000
vt 0.8766 0.6215 0.0000
vt 0.7223 0.6503 0.0000
vt 0.8974 0.7519 0.0000
vt 0.7019 0.7087 0.0000
vt 0.7248 0.6503 0.0000
vt 0.8724 0.6756 0.0000
vt 0.8974 0.9774 0.0000
vt 0.6937 0.9169 0.0000
vt 0.6843 0.7737 0.0000
vt 0.8883 0.8246 0.0000
vt 0.6907 0.3777 0.0000
vt 0.8978 0.3109 0.0000
vt 0.8872 0.4662 0.0000
vt 0.6843 0.5211 0.0000
vt 0.2787 0.0000 0.0000
vt 0.5568 0.0025 0.0000
vt 0.5568 0.1555 0.0000
vt 0.2787 0.1555 0.0000
vt 0.0000 0.4635 0.0000
vt 0.2781 0.4642 0.0000
vt 0.0001 0.3971 0.0000
vt 0.2783 0.4023 0.0000
vt 0.6370 0.2682 0.0000
vt 0.6370 0.0000 0.0000
vt 0.7859 0.0000 0.0000
vt 0.7859 0.2682 0.0000
vt 0.8734 0.0001 0.0000
vt 0.8734 0.2683 0.0000
vt 0.7941 0.2682 0.0000
vt 0.0000 0.2572 0.0000
vt 0.2781 0.2570 0.0000
vt 0.2787 0.3971 0.0000
vt 0.0006 0.3971 0.0000
vt 0.9457 0.6503 0.0000
vt 0.9457 0.9184 0.0000
vt 0.9032 0.9185 0.0000
vt 0.8974 0.6503 0.0000
vt 0.3995 0.5765 0.0000
vt 0.4840 0.5719 0.0000
vt 0.4256 0.7109 0.0000
vt 0.3587 0.7318 0.0000
vt 0.5591 0.5707 0.0000
vt 0.6451 0.5589 0.0000
vt 0.6283 0.7040 0.0000
vt 0.5917 0.7278 0.0000
vt 0.6049 0.3121 0.0000
vt 0.6843 0.3109 0.0000
vt 0.6843 0.4545 0.0000
vt 0.5841 0.4229 0.0000
vt 0.3674 0.3160 0.0000
vt 0.4557 0.3142 0.0000
vt 0.4840 0.4009 0.0000
vt 0.3823 0.4276 0.0000
vt 0.0004 0.0000 0.0000
vt 0.2785 0.0069 0.0000
vt 0.2781 0.0863 0.0000
vt 0.0000 0.0863 0.0000
vt 0.5568 0.2682 0.0000
vt 0.5568 0.0000 0.0000
vt 0.2787 1.0000 0.0000
vt 0.2818 0.7318 0.0000
vt 0.4322 0.7318 0.0000
vt 0.4324 1.0000 0.0000
vt 0.5716 0.4968 0.0000
vt 0.6821 0.5318 0.0000
vt 0.3909 0.5020 0.0000
vt 0.4793 0.4863 0.0000
vt 0.0001 0.1717 0.0000
vt 0.2781 0.1717 0.0000
vt 0.2787 0.5317 0.0000
vt 0.3142 0.5605 0.0000
vt 0.4841 0.4767 0.0000
vt 0.4842 0.5621 0.0000
vt 0.2882 0.3109 0.0000
vt 0.2806 0.4543 0.0000
vt 0.5255 0.3132 0.0000
vt 0.4840 0.3912 0.0000
vt 0.5260 0.7036 0.0000
vt 0.3161 0.7091 0.0000
vt 1.0000 0.6505 0.0000
vt 1.0000 0.9186 0.0000
vt 0.9526 0.0002 0.0000
vt 0.9526 0.2683 0.0000
vt 0.9418 0.3109 0.0000
vt 0.9418 0.5791 0.0000
vt 0.8978 0.5792 0.0000
vt 0.8978 0.3110 0.0000
# 105 texture coords

o pathStone01
g pathStone01
s off
f 1/1/1 2/2/1 3/3/1 4/4/1 
f 4/5/2 3/6/2 5/7/2 6/8/2 
f 7/9/3 8/10/3 9/11/3 10/12/3 
f 10/13/4 9/14/4 11/15/4 12/16/4 
f 13/17/5 7/18/5 10/19/5 12/20/5 
f 8/21/6 14/22/6 11/23/6 9/24/6 
f 5/25/7 3/26/7 2/27/7 15/28/7 
f 4/29/5 6/30/5 16/31/5 1/32/5 
f 6/33/8 5/34/8 15/35/8 16/36/8 
f 13/37/9 14/38/9 2/2/9 1/1/9 
f 12/39/10 11/40/10 14/38/10 13/37/10 
f 15/28/6 2/27/6 14/22/6 8/21/6 
f 1/32/11 16/31/11 7/18/11 13/17/11 
f 16/36/12 15/35/12 8/10/12 7/9/12 
f 17/41/13 18/42/13 19/43/13 20/44/13 
f 21/45/14 22/46/14 23/47/14 24/43/14 
f 25/48/15 26/49/15 27/50/15 28/51/15 
f 29/52/16 30/53/16 31/54/16 32/55/16 
f 33/56/5 25/57/5 28/58/5 29/59/5 
f 34/60/6 35/61/6 31/62/6 30/63/6 
f 22/64/6 19/65/6 18/66/6 36/67/6 
f 21/68/11 24/69/11 37/70/11 38/71/11 
f 24/72/17 23/73/17 39/74/17 37/75/17 
f 40/76/18 41/77/18 18/42/18 17/41/18 
f 32/78/19 31/79/19 35/80/19 42/81/19 
f 43/82/6 41/83/6 35/61/6 34/60/6 
f 44/84/11 45/85/11 25/57/11 33/56/11 
f 45/86/20 46/87/20 26/49/20 25/48/20 
f 40/88/11 44/84/11 33/56/11 42/89/11 
f 46/90/6 43/82/6 34/60/6 26/91/6 
f 20/92/11 21/68/11 38/71/11 17/93/11 
f 23/94/7 22/64/7 36/67/7 39/95/7 
f 26/91/7 34/60/7 30/63/7 27/96/7 
f 42/89/11 33/56/11 29/59/11 32/97/11 
f 28/98/21 27/99/21 30/53/21 29/52/21 
f 20/100/22 19/101/22 22/46/22 21/45/22 
f 39/95/6 36/67/6 43/82/6 46/90/6 
f 17/93/11 38/71/11 44/84/11 40/88/11 
f 37/75/23 39/74/23 46/87/23 45/86/23 
f 38/71/11 37/70/11 45/85/11 44/84/11 
f 36/67/6 18/66/6 41/83/6 43/82/6 
f 42/102/24 35/103/24 41/104/24 40/105/24 
# 42 polygons

