# 3ds Max Wavefront OBJ Exporter v0.97b - (c)2007 guruware
# File Created: 27.05.2020 23:04:27

mtllib Leaves03.mtl

#
# object Leaves03
#

v  -78.9652 11.3130 25.2775
v  -71.7933 31.5219 24.2137
v  -79.9281 29.1519 -25.2305
v  -101.3668 5.1476 -25.2549
v  40.9569 51.6187 -24.4477
v  40.6147 51.6331 24.9825
v  57.9703 46.5723 25.1041
v  58.3126 46.5579 -24.3261
v  44.7983 -0.0829 -58.9746
v  -36.1978 -0.0898 -45.0919
v  -32.0838 6.8830 -62.7131
v  39.5660 7.2882 -74.6113
v  -48.0385 40.5047 50.1562
v  -48.1203 42.4372 44.7666
v  -53.3792 40.1719 44.7309
v  -47.4956 42.4110 -45.4534
v  -47.3392 40.4753 -50.8401
v  -52.8006 40.1329 -45.4892
v  -36.7281 -2.8047 -25.4103
v  44.1895 -2.2318 -38.1782
v  37.0571 3.1686 20.7634
v  -25.6946 1.6010 26.6664
v  21.3515 50.4605 44.0171
v  -27.9853 47.4220 43.6764
v  -27.7270 41.3205 60.6926
v  21.6097 44.3590 61.0333
v  -47.2328 32.7706 -61.2246
v  -56.9145 12.0334 -61.2296
v  -87.6070 7.2148 -44.3575
v  -69.5886 30.2686 -44.3387
v  -27.3776 47.3965 -44.0873
v  21.9591 50.4350 -43.7465
v  22.4530 44.3235 -60.7540
v  -26.8838 41.2851 -61.0947
v  59.4417 5.7895 22.3287
v  66.2048 0.5611 -37.0680
v  78.1305 10.0953 -33.2822
v  74.6189 12.9031 24.4725
v  66.4148 4.6398 -58.0972
v  64.5216 7.2306 -63.2326
v  70.3305 7.6592 -56.6863
v  58.8690 39.6724 -43.4878
v  71.1893 18.7818 -50.7548
v  54.1806 16.8946 -70.6167
v  42.1120 38.5614 -60.7760
v  -44.6250 5.7662 52.5922
v  -44.0481 6.0729 60.8272
v  -49.9828 7.5323 54.0515
v  27.0962 7.8495 88.0737
v  22.0923 37.4247 69.5465
v  -27.2523 34.2985 69.2247
v  -23.3297 7.5912 88.2073
v  21.6509 53.2903 -24.5819
v  -27.6858 50.2519 -24.9226
v  -28.0280 50.2663 24.5076
v  21.3087 53.3047 24.8483
v  -27.8604 14.8980 -70.8967
v  -26.4051 34.4028 -69.0289
v  23.1316 37.3262 -68.9917
v  32.1983 15.9187 -78.4544
v  -68.1703 -0.2076 -45.4651
v  -75.6721 0.8382 -45.5069
v  -66.1527 2.3083 -50.8512
v  55.6473 6.4177 48.6194
v  61.1633 8.9765 51.0069
v  53.5421 6.4794 57.3234
v  42.5538 47.9568 -44.8315
v  48.0508 46.3539 -44.7930
v  42.7102 46.0211 -50.2182
v  41.2219 38.6271 61.4610
v  48.6772 12.0141 79.0379
v  68.2214 19.7435 52.4588
v  58.2613 39.6979 44.2758
v  41.9291 47.9830 45.3885
v  42.0109 46.0505 50.7781
v  47.4262 46.3801 45.4271
v  75.2713 20.7681 -28.0782
v  66.6604 40.1660 -24.2664
v  66.3181 40.1803 25.1638
v  76.2373 21.2254 24.0520
v  -41.9891 10.8909 79.2196
v  -46.3758 33.2323 60.8560
v  -63.2957 32.2117 43.4363
v  -61.1706 14.3723 52.3293
v  -46.9830 46.2383 24.3775
v  -46.6408 46.2239 -25.0527
v  -64.1308 38.8254 -25.1670
v  -63.5866 39.0861 24.2646
v  -24.5239 3.0002 46.6302
v  33.5661 3.2294 41.8226
v  27.9986 1.2401 68.3014
v  -24.7185 1.7022 70.9010
v  -49.6971 1.5964 27.6005
v  -70.2625 4.8866 27.0198
v  -68.2631 -4.2487 -25.0614
v  -93.0191 -1.2443 -25.1952
v  48.7875 -1.4991 -3.9795
v  52.5293 9.0445 -4.5345
v  48.2851 7.8080 -30.3310
v  37.0998 -4.7157 -30.3437
v  111.3545 19.5297 -29.9226
v  111.1759 19.5372 -4.1334
v  120.2309 16.8968 -4.0699
v  120.4095 16.8893 -29.8591
v  113.3586 -7.4446 -47.9364
v  71.1005 -7.4482 -40.6933
v  73.2469 -3.8103 -49.8868
v  110.6288 -3.5989 -56.0945
v  64.9228 13.7311 9.0005
v  64.8801 14.7394 6.1886
v  62.1364 13.5575 6.1700
v  65.2061 14.7257 -40.8819
v  65.2877 13.7158 -43.6923
v  62.4383 13.5371 -40.9006
v  70.8238 -8.8647 -30.4249
v  113.0410 -8.5658 -37.0862
v  109.3198 -5.7482 -6.3346
v  76.5803 -6.5661 -3.2548
v  101.1257 18.9254 5.7976
v  75.3852 17.3401 5.6198
v  75.5200 14.1568 14.4977
v  101.2604 15.7420 14.6754
v  65.3432 9.6960 -49.1102
v  60.2920 -1.1232 -49.1129
v  44.2788 -3.6372 -40.3101
v  53.6795 8.3907 -40.3004
v  75.7023 17.3268 -40.1692
v  101.4427 18.9121 -39.9914
v  101.7004 15.7235 -48.8647
v  75.9599 14.1383 -49.0425
v  120.9985 -4.3808 -5.5179
v  124.5270 -7.1087 -36.5070
v  130.7491 -2.1344 -34.5318
v  128.9170 -0.6694 -4.3995
v  124.6366 -4.9807 -47.4786
v  123.6489 -3.6290 -50.1579
v  126.6796 -3.4053 -46.7425
v  120.6997 13.2969 -39.8564
v  127.1276 2.3976 -43.6478
v  118.2536 1.4130 -54.0104
v  111.9571 12.7173 -48.8762
v  66.7038 -4.3930 10.2715
v  67.0048 -4.2330 14.5679
v  63.9084 -3.4715 11.0328
v  104.1229 -3.3061 28.7832
v  101.5122 12.1242 19.1171
v  75.7676 10.4932 18.9491
v  77.8142 -3.4408 28.8530
v  101.2819 20.4018 -29.9926
v  75.5415 18.8165 -30.1704
v  75.3629 18.8241 -4.3811
v  101.1034 20.4093 -4.2034
v  75.4504 0.3714 -54.1564
v  76.2096 10.5476 -53.1820
v  102.0544 12.0728 -53.1626
v  106.7848 0.9039 -58.0996
v  54.4195 -7.5097 -40.8880
v  50.5056 -6.9641 -40.9099
v  55.4721 -6.1971 -43.6981
v  119.0189 -4.0531 8.1987
v  121.8968 -2.7181 9.4443
v  117.9205 -4.0209 12.7399
v  112.1876 17.6191 -40.5574
v  115.0556 16.7828 -40.5373
v  112.2692 16.6092 -43.3679
v  111.4927 12.7515 14.8986
v  115.3824 -1.1333 24.0690
v  125.5792 2.8994 10.2019
v  120.3827 13.3102 5.9325
v  111.8617 17.6328 6.5131
v  111.9044 16.6245 9.3250
v  114.7297 16.7965 6.5332
v  129.2573 3.4340 -31.8168
v  124.7647 13.5544 -29.8280
v  124.5862 13.5619 -4.0388
v  129.7613 3.6725 -4.6189
v  68.0790 -1.7193 24.1638
v  65.7903 9.9369 14.5829
v  56.9627 9.4044 5.4946
v  58.0714 0.0971 10.1343
v  65.4735 16.7225 -4.4490
v  65.6521 16.7150 -30.2382
v  56.5270 12.8550 -30.2979
v  56.8109 12.9910 -4.5079
v  77.1911 -5.8361 7.1609
v  107.4985 -5.7165 4.6526
v  104.5937 -6.7544 18.4674
v  77.0896 -6.5133 19.8237
v  64.0575 -6.5685 -2.7675
v  53.3279 -4.8519 -3.0704
v  54.3710 -9.6181 -30.2428
v  41.4551 -8.0506 -30.3126
# 192 vertices

vn -0.8540 -0.2141 0.4741
vn -0.8145 0.5379 0.2171
vn -0.6553 0.7464 -0.1164
vn -0.9900 -0.1129 -0.0841
vn 0.1809 0.9803 -0.0797
vn 0.1798 0.9803 0.0816
vn 0.4671 0.8749 0.1279
vn 0.4687 0.8749 -0.1220
vn 0.0978 -0.9533 -0.2859
vn -0.0156 -0.9681 -0.2499
vn -0.1009 -0.8088 -0.5794
vn 0.1788 -0.5737 -0.7993
vn -0.3934 0.8010 0.4513
vn -0.3045 0.9210 0.2432
vn -0.5098 0.7907 0.3391
vn -0.3005 0.9210 -0.2480
vn -0.3711 0.8138 -0.4472
vn -0.4435 0.8449 -0.2991
vn 0.0260 -0.9994 -0.0248
vn 0.0664 -0.9978 -0.0070
vn 0.0718 -0.9956 0.0596
vn 0.0181 -0.9971 0.0745
vn 0.0194 0.9705 0.2401
vn -0.1416 0.9606 0.2390
vn -0.1785 0.8422 0.5088
vn 0.0644 0.8597 0.5067
vn -0.4248 0.4942 -0.7585
vn -0.3683 -0.2102 -0.9056
vn -0.7040 -0.1403 -0.6962
vn -0.5913 0.6592 -0.4645
vn -0.1383 0.9605 -0.2415
vn 0.0227 0.9704 -0.2404
vn 0.0735 0.8541 -0.5149
vn -0.1730 0.8351 -0.5223
vn 0.2660 -0.9599 0.0888
vn 0.3914 -0.9197 -0.0319
vn 0.9606 -0.2458 -0.1295
vn 0.8002 -0.5641 0.2036
vn 0.4562 -0.8140 -0.3597
vn 0.5833 -0.3547 -0.7307
vn 0.8425 -0.2778 -0.4616
vn 0.6159 0.6744 -0.4073
vn 0.8578 0.3368 -0.3882
vn 0.4868 0.1874 -0.8532
vn 0.3711 0.6666 -0.6465
vn -0.1878 -0.9744 0.1235
vn -0.3762 -0.9093 0.1778
vn -0.4078 -0.8705 0.2755
vn 0.2005 -0.3265 0.9237
vn 0.1033 0.6575 0.7463
vn -0.2021 0.6466 0.7356
vn -0.1972 -0.3068 0.9311
vn 0.0127 0.9972 -0.0736
vn -0.1339 0.9882 -0.0746
vn -0.1349 0.9882 0.0722
vn 0.0116 0.9972 0.0732
vn -0.1913 -0.2979 -0.9352
vn -0.1762 0.4393 -0.8809
vn 0.1058 0.6046 -0.7895
vn 0.0775 0.0241 -0.9967
vn -0.0673 -0.9451 -0.3199
vn -0.2833 -0.8031 -0.5242
vn -0.2046 -0.7350 -0.6464
vn 0.2655 -0.9619 0.0653
vn 0.5950 -0.7373 0.3201
vn 0.3755 -0.9039 0.2047
vn 0.1892 0.9510 -0.2446
vn 0.4089 0.8467 -0.3403
vn 0.2921 0.8421 -0.4533
vn 0.3753 0.6764 0.6338
vn 0.5799 -0.2040 0.7887
vn 0.8928 0.0218 0.4499
vn 0.6219 0.6639 0.4153
vn 0.1858 0.9511 0.2466
vn 0.2840 0.8443 0.4544
vn 0.4042 0.8469 0.3454
vn 0.9275 0.3600 -0.1011
vn 0.7778 0.6119 -0.1437
vn 0.7660 0.6202 0.1690
vn 0.9820 0.1449 0.1211
vn -0.5804 -0.2422 0.7775
vn -0.4893 0.5941 0.6385
vn -0.7767 0.4414 0.4494
vn -0.7760 -0.3016 0.5539
vn -0.2998 0.9508 0.0783
vn -0.2957 0.9517 -0.0831
vn -0.4644 0.8797 -0.1021
vn -0.5575 0.8215 0.1199
vn -0.0616 -0.9980 0.0138
vn 0.0744 -0.9971 -0.0174
vn 0.1298 -0.9802 0.1497
vn -0.1603 -0.9724 0.1698
vn -0.0740 -0.9849 0.1566
vn -0.4050 -0.8479 0.3422
vn -0.0465 -0.9984 -0.0320
vn -0.4412 -0.8940 -0.0781
vn 0.4670 0.8749 0.1279
vn 0.4688 0.8749 -0.1220
vn -0.4079 -0.8705 0.2755
vn 0.2921 0.8421 -0.4534
# 100 vertex normals

vt 0.1053 0.2667 0.0000
vt 0.0402 0.1923 0.0000
vt 0.1086 0.1631 0.0000
vt 0.1480 0.2078 0.0000
vt 0.6138 0.2349 0.0000
vt 0.6289 0.3206 0.0000
vt 0.5849 0.3266 0.0000
vt 0.5754 0.2428 0.0000
vt 0.3335 0.1658 0.0000
vt 0.2192 0.1999 0.0000
vt 0.2141 0.1676 0.0000
vt 0.3118 0.1285 0.0000
vt 0.0762 0.4848 0.0000
vt 0.0653 0.4910 0.0000
vt 0.0658 0.4783 0.0000
vt 0.1093 0.1052 0.0000
vt 0.1179 0.1075 0.0000
vt 0.1119 0.1140 0.0000
vt 0.2197 0.2272 0.0000
vt 0.3382 0.1996 0.0000
vt 0.3240 0.3055 0.0000
vt 0.2155 0.3073 0.0000
vt 0.1203 0.5998 0.0000
vt 0.0721 0.5281 0.0000
vt 0.1049 0.5065 0.0000
vt 0.1569 0.5742 0.0000
vt 0.1419 0.1190 0.0000
vt 0.1793 0.1657 0.0000
vt 0.1597 0.1924 0.0000
vt 0.1244 0.1449 0.0000
vt 0.1051 0.0781 0.0000
vt 0.1223 0.0066 0.0000
vt 0.1611 0.0194 0.0000
vt 0.1338 0.0860 0.0000
vt 0.3628 0.3110 0.0000
vt 0.3730 0.2130 0.0000
vt 0.4093 0.2267 0.0000
vt 0.4039 0.3217 0.0000
vt 0.3923 0.1878 0.0000
vt 0.4032 0.1789 0.0000
vt 0.4041 0.1922 0.0000
vt 0.5445 0.2123 0.0000
vt 0.4484 0.2014 0.0000
vt 0.4469 0.1597 0.0000
vt 0.5521 0.1731 0.0000
vt 0.1798 0.3582 0.0000
vt 0.1831 0.3712 0.0000
vt 0.1677 0.3646 0.0000
vt 0.2885 0.4337 0.0000
vt 0.1871 0.5497 0.0000
vt 0.1313 0.4851 0.0000
vt 0.2123 0.4112 0.0000
vt 0.0875 0.0001 0.0000
vt 0.0778 0.0759 0.0000
vt 0.0052 0.0876 0.0000
vt 0.0001 0.0001 0.0000
vt 0.2037 0.1402 0.0000
vt 0.1567 0.0973 0.0000
vt 0.1931 0.0346 0.0000
vt 0.2810 0.0981 0.0000
vt 0.1844 0.2023 0.0000
vt 0.1769 0.2010 0.0000
vt 0.1843 0.1937 0.0000
vt 0.3525 0.3538 0.0000
vt 0.3648 0.3600 0.0000
vt 0.3485 0.3674 0.0000
vt 0.5926 0.2042 0.0000
vt 0.5806 0.2070 0.0000
vt 0.5837 0.1949 0.0000
vt 0.4577 0.4630 0.0000
vt 0.3560 0.4070 0.0000
vt 0.4050 0.3809 0.0000
vt 0.4798 0.4314 0.0000
vt 0.5050 0.4720 0.0000
vt 0.4930 0.4708 0.0000
vt 0.4999 0.4610 0.0000
vt 0.4538 0.2380 0.0000
vt 0.5421 0.2457 0.0000
vt 0.5475 0.3296 0.0000
vt 0.4454 0.3269 0.0000
vt 0.1810 0.4038 0.0000
vt 0.1059 0.4638 0.0000
vt 0.0733 0.4419 0.0000
vt 0.1326 0.3826 0.0000
vt 0.0120 0.1212 0.0000
vt 0.0819 0.1030 0.0000
vt 0.0919 0.1326 0.0000
vt 0.0246 0.1598 0.0000
vt 0.2167 0.3421 0.0000
vt 0.3155 0.3409 0.0000
vt 0.3038 0.3867 0.0000
vt 0.2203 0.3803 0.0000
vt 0.1718 0.3102 0.0000
vt 0.1291 0.3189 0.0000
vt 0.0962 0.3387 0.0000
vt 0.0396 0.5454 0.0000
vt 0.0283 0.5076 0.0000
vt 0.0291 0.4617 0.0000
vt 0.0414 0.4227 0.0000
vt 0.1846 0.2237 0.0000
vt 0.1626 0.2158 0.0000
vt 0.4011 0.3243 0.0000
vt 0.4355 0.3440 0.0000
vt 0.3237 0.4285 0.0000
vt 0.5421 0.4694 0.0000
vt 0.5512 0.5031 0.0000
vt 0.5165 0.5072 0.0000
vt 0.4760 0.5038 0.0000
vt 0.4417 0.4932 0.0000
vt 0.5239 0.4329 0.0000
vt 0.5018 0.4060 0.0000
vt 0.3605 0.1633 0.0000
vt 0.4033 0.1318 0.0000
vt 0.4529 0.1187 0.0000
vt 0.6300 0.1895 0.0000
vt 0.6486 0.2242 0.0000
vt 0.5980 0.1573 0.0000
vt 0.5632 0.1384 0.0000
vt 0.1755 0.2991 0.0000
vt 0.1368 0.2846 0.0000
vt 0.6669 0.3134 0.0000
vt 0.0888 0.6204 0.0000
vt 0.0550 0.7598 0.0000
vt 0.0211 0.7210 0.0000
vt 0.0567 0.7057 0.0000
vt 0.0773 0.7291 0.0000
vt 0.3203 0.7432 0.0000
vt 0.3282 0.7879 0.0000
vt 0.3052 0.7911 0.0000
vt 0.3003 0.7473 0.0000
vt 0.1741 0.7072 0.0000
vt 0.1144 0.7249 0.0000
vt 0.1118 0.7081 0.0000
vt 0.1627 0.6877 0.0000
vt 0.0398 0.8736 0.0000
vt 0.0341 0.8768 0.0000
vt 0.0344 0.8702 0.0000
vt 0.0571 0.6756 0.0000
vt 0.0616 0.6767 0.0000
vt 0.0585 0.6801 0.0000
vt 0.1147 0.7392 0.0000
vt 0.1765 0.7248 0.0000
vt 0.1691 0.7800 0.0000
vt 0.1125 0.7810 0.0000
vt 0.0628 0.9336 0.0000
vt 0.0377 0.8962 0.0000
vt 0.0548 0.8849 0.0000
vt 0.0819 0.9202 0.0000
vt 0.0741 0.6827 0.0000
vt 0.0936 0.7071 0.0000
vt 0.0834 0.7210 0.0000
vt 0.0650 0.6962 0.0000
vt 0.0549 0.6614 0.0000
vt 0.0639 0.6241 0.0000
vt 0.0841 0.6308 0.0000
vt 0.0699 0.6655 0.0000
vt 0.1894 0.7829 0.0000
vt 0.1947 0.7318 0.0000
vt 0.2136 0.7389 0.0000
vt 0.2108 0.7885 0.0000
vt 0.2048 0.7186 0.0000
vt 0.2104 0.7140 0.0000
vt 0.2109 0.7209 0.0000
vt 0.2841 0.7314 0.0000
vt 0.2340 0.7257 0.0000
vt 0.2332 0.7040 0.0000
vt 0.2881 0.7110 0.0000
vt 0.0939 0.8075 0.0000
vt 0.0956 0.8143 0.0000
vt 0.0876 0.8109 0.0000
vt 0.1506 0.8469 0.0000
vt 0.0977 0.9074 0.0000
vt 0.0686 0.8738 0.0000
vt 0.1108 0.8352 0.0000
vt 0.0457 0.6207 0.0000
vt 0.0407 0.6602 0.0000
vt 0.0028 0.6663 0.0000
vt 0.0001 0.6207 0.0000
vt 0.1064 0.6938 0.0000
vt 0.0818 0.6714 0.0000
vt 0.1008 0.6387 0.0000
vt 0.1467 0.6719 0.0000
vt 0.0963 0.7262 0.0000
vt 0.0924 0.7255 0.0000
vt 0.0962 0.7217 0.0000
vt 0.1840 0.8053 0.0000
vt 0.1904 0.8085 0.0000
vt 0.1819 0.8123 0.0000
vt 0.3092 0.7272 0.0000
vt 0.3030 0.7287 0.0000
vt 0.3046 0.7223 0.0000
vt 0.2389 0.8622 0.0000
vt 0.1858 0.8330 0.0000
vt 0.2114 0.8194 0.0000
vt 0.2504 0.8457 0.0000
vt 0.2635 0.8669 0.0000
vt 0.2573 0.8663 0.0000
vt 0.2609 0.8612 0.0000
vt 0.2368 0.7448 0.0000
vt 0.2829 0.7489 0.0000
vt 0.2857 0.7926 0.0000
vt 0.2324 0.7912 0.0000
vt 0.0945 0.8313 0.0000
vt 0.0553 0.8626 0.0000
vt 0.0383 0.8512 0.0000
vt 0.0692 0.8202 0.0000
vt 0.0064 0.6839 0.0000
vt 0.0428 0.6744 0.0000
vt 0.0480 0.6898 0.0000
vt 0.0129 0.7040 0.0000
vt 0.1131 0.7992 0.0000
vt 0.1647 0.7985 0.0000
vt 0.1586 0.8224 0.0000
vt 0.1150 0.8191 0.0000
vt 0.0897 0.7825 0.0000
vt 0.0674 0.7870 0.0000
vt 0.0503 0.7973 0.0000
vt 0.0207 0.9052 0.0000
vt 0.0149 0.8855 0.0000
vt 0.0152 0.8615 0.0000
vt 0.0217 0.8412 0.0000
vt 0.0964 0.7374 0.0000
vt 0.0849 0.7332 0.0000
vt 0.2093 0.7899 0.0000
vt 0.2273 0.8001 0.0000
vt 0.1690 0.8442 0.0000
vt 0.2829 0.8656 0.0000
vt 0.2877 0.8831 0.0000
vt 0.2696 0.8853 0.0000
vt 0.2484 0.8835 0.0000
vt 0.2305 0.8780 0.0000
vt 0.2734 0.8465 0.0000
vt 0.2619 0.8325 0.0000
vt 0.1881 0.7058 0.0000
vt 0.2105 0.6894 0.0000
vt 0.2364 0.6826 0.0000
vt 0.3288 0.7195 0.0000
vt 0.3385 0.7376 0.0000
vt 0.3120 0.7027 0.0000
vt 0.2939 0.6929 0.0000
vt 0.0916 0.7767 0.0000
vt 0.0715 0.7692 0.0000
vt 0.3480 0.7841 0.0000
vt 0.0464 0.9444 0.0000
# 244 texture coords

o Leaves03
g Leaves03
usemtl 02___Default
s 1
f 1/1/1 2/2/2 3/3/3 4/4/4 
f 5/5/5 6/6/6 7/7/7 8/8/8 
f 9/9/9 10/10/10 11/11/11 12/12/12 
f 13/13/13 14/14/14 15/15/15 
f 16/16/16 17/17/17 18/18/18 
f 19/19/19 20/20/20 21/21/21 22/22/22 
f 23/23/23 24/24/24 25/25/25 26/26/26 
f 27/27/27 28/28/28 29/29/29 30/30/30 
f 31/31/31 32/32/32 33/33/33 34/34/34 
f 35/35/35 36/36/36 37/37/37 38/38/38 
f 39/39/39 40/40/40 41/41/41 
f 42/42/42 43/43/43 44/44/44 45/45/45 
f 46/46/46 47/47/47 48/48/48 
f 49/49/49 50/50/50 51/51/51 52/52/52 
f 53/53/53 54/54/54 55/55/55 56/56/56 
f 57/57/57 58/58/58 59/59/59 60/60/60 
f 61/61/61 62/62/62 63/63/63 
f 64/64/64 65/65/65 66/66/66 
f 67/67/67 68/68/68 69/69/69 
f 70/70/70 71/71/71 72/72/72 73/73/73 
f 74/74/74 75/75/75 76/76/76 
f 77/77/77 78/78/78 79/79/79 80/80/80 
f 81/81/81 82/82/82 83/83/83 84/84/84 
f 85/85/85 86/86/86 87/87/87 88/88/88 
f 89/89/89 90/90/90 91/91/91 92/92/92 
f 93/93/93 22/22/22 89/89/89 46/46/46 
f 92/92/92 52/52/52 81/81/81 47/47/47 
f 94/94/94 48/48/48 84/84/84 1/95/1 
f 82/82/82 51/51/51 25/25/25 13/13/13 
f 24/24/24 55/96/55 85/97/85 14/14/14 
f 83/83/83 15/15/15 88/98/88 2/99/2 
f 10/10/10 19/19/19 95/100/95 61/61/61 
f 96/101/96 4/4/4 29/29/29 62/62/62 
f 11/11/11 63/63/63 28/28/28 57/57/57 
f 86/86/86 54/54/54 31/31/31 16/16/16 
f 34/34/34 58/58/58 27/27/27 17/17/17 
f 87/87/87 18/18/18 30/30/30 3/3/3 
f 90/90/90 21/21/21 35/35/35 64/64/64 
f 38/102/38 80/103/80 72/72/72 65/65/65 
f 91/91/91 66/66/66 71/71/71 49/104/49 
f 6/105/6 56/106/56 23/107/23 74/74/74 
f 26/108/26 50/109/50 70/70/70 75/75/75 
f 7/110/7 76/76/76 73/73/73 79/111/79 
f 36/36/36 20/20/20 9/112/9 39/39/39 
f 12/113/12 60/114/60 44/44/44 40/40/40 
f 37/37/37 41/41/41 43/43/43 77/77/77 
f 32/115/32 53/116/53 5/5/5 67/67/67 
f 8/8/8 78/78/78 42/42/42 68/68/68 
f 33/117/33 69/69/69 45/45/45 59/118/59 
f 94/94/94 93/93/93 46/46/46 48/48/48 
f 89/89/89 92/92/92 47/47/47 46/46/46 
f 81/81/81 84/84/84 48/48/48 47/47/47 
f 83/83/83 82/82/82 13/13/13 15/15/15 
f 25/25/25 24/24/24 14/14/14 13/13/13 
f 85/97/85 88/98/88 15/15/15 14/14/14 
f 11/11/11 10/10/10 61/61/61 63/63/63 
f 95/100/95 96/101/96 62/62/62 61/61/61 
f 29/29/29 28/28/28 63/63/63 62/62/62 
f 87/87/87 86/86/86 16/16/16 18/18/18 
f 31/31/31 34/34/34 17/17/17 16/16/16 
f 27/27/27 30/30/30 18/18/18 17/17/17 
f 91/91/91 90/90/90 64/64/64 66/66/66 
f 35/35/35 38/102/38 65/65/65 64/64/64 
f 72/72/72 71/71/71 66/66/66 65/65/65 
f 7/110/7 6/105/6 74/74/74 76/76/76 
f 23/107/23 26/108/26 75/75/75 74/74/74 
f 70/70/70 73/73/73 76/76/76 75/75/75 
f 37/37/37 36/36/36 39/39/39 41/41/41 
f 9/112/9 12/113/12 40/40/40 39/39/39 
f 44/44/44 43/43/43 41/41/41 40/40/40 
f 33/117/33 32/115/32 67/67/67 69/69/69 
f 5/5/5 8/8/8 68/68/68 67/67/67 
f 42/42/42 45/45/45 69/69/69 68/68/68 
f 19/19/19 22/22/22 93/119/93 95/100/95 
f 1/1/1 4/4/4 96/101/96 94/120/94 
f 52/52/52 51/51/51 82/82/82 81/81/81 
f 2/99/2 1/95/1 84/84/84 83/83/83 
f 55/55/55 54/54/54 86/86/86 85/85/85 
f 3/3/3 2/2/2 88/88/88 87/87/87 
f 58/58/58 57/57/57 28/28/28 27/27/27 
f 4/4/4 3/3/3 30/30/30 29/29/29 
f 20/20/20 19/19/19 10/10/10 9/9/9 
f 57/57/57 60/60/60 12/12/12 11/11/11 
f 54/54/54 53/53/53 32/32/32 31/31/31 
f 59/59/59 58/58/58 34/34/34 33/33/33 
f 78/78/78 77/77/77 43/43/43 42/42/42 
f 60/114/60 59/118/59 45/45/45 44/44/44 
f 21/21/21 20/20/20 36/36/36 35/35/35 
f 77/77/77 80/80/80 38/38/38 37/37/37 
f 53/116/53 56/121/56 6/6/6 5/5/5 
f 79/79/79 78/78/78 8/8/8 7/7/7 
f 50/109/50 49/104/49 71/71/71 70/70/70 
f 80/103/80 79/111/79 73/73/73 72/72/72 
f 22/22/22 21/21/21 90/90/90 89/89/89 
f 49/49/49 52/52/52 92/92/92 91/91/91 
f 56/122/56 55/96/55 24/24/24 23/23/23 
f 51/51/51 50/50/50 26/26/26 25/25/25 
f 95/100/95 93/119/93 94/120/94 96/101/96 
f 97/123/1 98/124/2 99/125/3 100/126/4 
f 101/127/5 102/128/6 103/129/97 104/130/98 
f 105/131/9 106/132/10 107/133/11 108/134/12 
f 109/135/13 110/136/14 111/137/15 
f 112/138/16 113/139/17 114/140/18 
f 115/141/19 116/142/20 117/143/21 118/144/22 
f 119/145/23 120/146/24 121/147/25 122/148/26 
f 123/149/27 124/150/28 125/151/29 126/152/30 
f 127/153/31 128/154/32 129/155/33 130/156/34 
f 131/157/35 132/158/36 133/159/37 134/160/38 
f 135/161/39 136/162/40 137/163/41 
f 138/164/42 139/165/43 140/166/44 141/167/45 
f 142/168/46 143/169/47 144/170/99 
f 145/171/49 146/172/50 147/173/51 148/174/52 
f 149/175/53 150/176/54 151/177/55 152/178/56 
f 153/179/57 154/180/58 155/181/59 156/182/60 
f 157/183/61 158/184/62 159/185/63 
f 160/186/64 161/187/65 162/188/66 
f 163/189/67 164/190/68 165/191/100 
f 166/192/70 167/193/71 168/194/72 169/195/73 
f 170/196/74 171/197/75 172/198/76 
f 173/199/77 174/200/78 175/201/79 176/202/80 
f 177/203/81 178/204/82 179/205/83 180/206/84 
f 181/207/85 182/208/86 183/209/87 184/210/88 
f 185/211/89 186/212/90 187/213/91 188/214/92 
f 189/215/93 118/144/22 185/211/89 142/168/46 
f 188/214/92 148/174/52 177/203/81 143/169/47 
f 190/216/94 144/170/99 180/206/84 97/217/1 
f 178/204/82 147/173/51 121/147/25 109/135/13 
f 120/146/24 151/218/55 181/219/85 110/136/14 
f 179/205/83 111/137/15 184/220/88 98/221/2 
f 106/132/10 115/141/19 191/222/95 157/183/61 
f 192/223/96 100/126/4 125/151/29 158/184/62 
f 107/133/11 159/185/63 124/150/28 153/179/57 
f 182/208/86 150/176/54 127/153/31 112/138/16 
f 130/156/34 154/180/58 123/149/27 113/139/17 
f 183/209/87 114/140/18 126/152/30 99/125/3 
f 186/212/90 117/143/21 131/157/35 160/186/64 
f 134/224/38 176/225/80 168/194/72 161/187/65 
f 187/213/91 162/188/66 167/193/71 145/226/49 
f 102/227/6 152/228/56 119/229/23 170/196/74 
f 122/230/26 146/231/50 166/192/70 171/197/75 
f 103/232/97 172/198/76 169/195/73 175/233/79 
f 132/158/36 116/142/20 105/234/9 135/161/39 
f 108/235/12 156/236/60 140/166/44 136/162/40 
f 133/159/37 137/163/41 139/165/43 173/199/77 
f 128/237/32 149/238/53 101/127/5 163/189/67 
f 104/130/98 174/200/78 138/164/42 164/190/68 
f 129/239/33 165/191/100 141/167/45 155/240/59 
f 190/216/94 189/215/93 142/168/46 144/170/99 
f 185/211/89 188/214/92 143/169/47 142/168/46 
f 177/203/81 180/206/84 144/170/99 143/169/47 
f 179/205/83 178/204/82 109/135/13 111/137/15 
f 121/147/25 120/146/24 110/136/14 109/135/13 
f 181/219/85 184/220/88 111/137/15 110/136/14 
f 107/133/11 106/132/10 157/183/61 159/185/63 
f 191/222/95 192/223/96 158/184/62 157/183/61 
f 125/151/29 124/150/28 159/185/63 158/184/62 
f 183/209/87 182/208/86 112/138/16 114/140/18 
f 127/153/31 130/156/34 113/139/17 112/138/16 
f 123/149/27 126/152/30 114/140/18 113/139/17 
f 187/213/91 186/212/90 160/186/64 162/188/66 
f 131/157/35 134/224/38 161/187/65 160/186/64 
f 168/194/72 167/193/71 162/188/66 161/187/65 
f 103/232/97 102/227/6 170/196/74 172/198/76 
f 119/229/23 122/230/26 171/197/75 170/196/74 
f 166/192/70 169/195/73 172/198/76 171/197/75 
f 133/159/37 132/158/36 135/161/39 137/163/41 
f 105/234/9 108/235/12 136/162/40 135/161/39 
f 140/166/44 139/165/43 137/163/41 136/162/40 
f 129/239/33 128/237/32 163/189/67 165/191/100 
f 101/127/5 104/130/98 164/190/68 163/189/67 
f 138/164/42 141/167/45 165/191/100 164/190/68 
f 115/141/19 118/144/22 189/241/93 191/222/95 
f 97/123/1 100/126/4 192/223/96 190/242/94 
f 148/174/52 147/173/51 178/204/82 177/203/81 
f 98/221/2 97/217/1 180/206/84 179/205/83 
f 151/177/55 150/176/54 182/208/86 181/207/85 
f 99/125/3 98/124/2 184/210/88 183/209/87 
f 154/180/58 153/179/57 124/150/28 123/149/27 
f 100/126/4 99/125/3 126/152/30 125/151/29 
f 116/142/20 115/141/19 106/132/10 105/131/9 
f 153/179/57 156/182/60 108/134/12 107/133/11 
f 150/176/54 149/175/53 128/154/32 127/153/31 
f 155/181/59 154/180/58 130/156/34 129/155/33 
f 174/200/78 173/199/77 139/165/43 138/164/42 
f 156/236/60 155/240/59 141/167/45 140/166/44 
f 117/143/21 116/142/20 132/158/36 131/157/35 
f 173/199/77 176/202/80 134/160/38 133/159/37 
f 149/238/53 152/243/56 102/128/6 101/127/5 
f 175/201/79 174/200/78 104/130/98 103/129/97 
f 146/231/50 145/226/49 167/193/71 166/192/70 
f 176/225/80 175/233/79 169/195/73 168/194/72 
f 118/144/22 117/143/21 186/212/90 185/211/89 
f 145/171/49 148/174/52 188/214/92 187/213/91 
f 152/244/56 151/218/55 120/146/24 119/145/23 
f 147/173/51 146/172/50 122/148/26 121/147/25 
f 191/222/95 189/241/93 190/242/94 192/223/96 
# 180 polygons - 16 triangles

