# 3ds Max Wavefront OBJ Exporter v0.97b - (c)2007 guruware
# File Created: 27.05.2020 23:04:26

mtllib Tree02.mtl

#
# object Tree02
#

v  -21.4731 -79.3557 -11.5326
v  -22.8447 -57.5755 -14.3806
v  -33.3699 -57.5755 -14.3806
v  -34.7414 -79.3557 -11.5326
v  -18.6244 -57.5755 -32.8708
v  -18.3841 -26.9958 -33.0625
v  -15.9827 -26.9958 -22.5411
v  -16.2823 -57.5755 -22.6095
v  -28.1073 -26.9958 -37.7449
v  -28.1073 -3.7928 -39.4252
v  -17.0704 -3.7928 -34.1101
v  -13.2005 -79.3557 -21.9061
v  -22.7113 -26.9958 -14.1037
v  -19.0413 -36.4283 -15.2297
v  -16.1302 -36.4283 -18.8800
v  -1.0466 -2.1176 -33.8194
v  4.7800 -8.7416 -34.5071
v  -43.0141 -79.3557 -21.9061
v  -39.9322 -57.5755 -22.6095
v  -40.6126 -58.4719 -32.8959
v  -40.0616 -79.3557 -34.8417
v  -33.5032 -26.9958 -14.1037
v  -14.3445 -3.7928 -22.1672
v  -21.9823 -3.7928 -12.5898
v  -28.1073 -57.5755 -37.4376
v  -30.9668 -81.1936 -43.1778
v  -40.2319 -15.8218 -22.5411
v  -34.2323 -3.7928 -12.5898
v  -11.4057 -79.5956 -38.1857
v  -40.8530 -16.7182 -33.0875
v  -41.8701 -3.7928 -22.1672
v  -69.8133 8.0777 -36.7683
v  -70.6263 2.4515 -36.5468
v  -80.7671 9.4922 -37.3405
v  -81.1842 16.8589 -37.6731
v  -67.9137 9.9346 -35.7411
v  -79.3347 19.5543 -36.1982
v  -39.1442 -3.7928 -34.1101
v  -30.9668 -89.9930 -45.6868
v  -9.4441 -88.3951 -39.7500
v  -10.7544 -88.1552 -21.3478
v  -20.3845 -88.1552 -9.2720
v  -35.8300 -88.1552 -9.2720
v  -45.4601 -88.1552 -21.3478
v  -42.0232 -88.1552 -36.4061
v  -22.8959 4.6969 -29.4644
v  -28.1073 4.6969 -31.9741
v  -33.3186 4.6969 -29.4644
v  -34.6057 4.6969 -23.8253
v  -30.9993 4.6969 -19.3030
v  -25.2152 4.6969 -19.3030
v  -21.6088 4.6969 -23.8253
v  -14.5051 2.9327 -47.0526
v  -21.1987 2.9327 -49.0635
v  -10.5360 14.7613 -65.3488
v  -7.7580 14.7613 -64.0110
v  -30.1518 12.3937 -3.5297
v  -32.4372 6.3921 1.2161
v  -30.6421 12.2765 15.0219
v  -29.3042 15.7899 12.2436
v  -10.5360 16.8982 -63.4733
v  -9.2243 16.8982 -62.8416
v  -21.1987 6.1446 -46.2445
v  -18.0381 6.1446 -45.2950
v  -25.5724 12.2765 15.0219
v  -26.9104 15.7899 12.2436
v  -23.7773 6.3921 1.2161
v  -26.0628 12.3937 -3.5297
v  -82.0497 16.8589 -33.8814
v  -79.7433 19.5543 -34.4078
v  -81.5296 9.4922 -34.0001
v  -71.0055 2.4716 -33.9243
v  -68.1170 9.9454 -34.3356
v  -70.2439 8.1004 -33.7915
v  -50.6438 5.1330 -31.5278
v  -54.0925 2.8363 -30.5819
v  -56.6736 -5.0282 -30.8228
v  -50.5023 5.1040 -33.5408
v  -56.4097 -5.0825 -34.5785
v  -53.7930 2.7747 -34.8452
v  5.1366 -8.8635 -30.8165
v  25.9865 5.0103 -34.6358
v  26.1257 4.9627 -33.1958
v  -0.6418 -2.2560 -29.6302
v  23.7131 7.5949 -34.3675
v  23.8710 7.5409 -32.7329
v  -19.0990 -49.6581 -15.3495
v  -16.2599 -49.6581 -18.9096
v  -14.5514 -45.7957 -15.8394
v  -15.7256 -45.7957 -14.3671
v  -14.4978 -40.3245 -15.8271
v  -15.7017 -40.3245 -14.3176
# 92 vertices

vn 0.4239 0.2133 0.8802
vn 0.3936 0.0108 0.9192
vn -0.4337 0.0688 0.8984
vn -0.4239 0.2133 0.8802
vn 0.7812 0.1436 -0.6075
vn 0.6492 -0.2191 -0.7284
vn 0.9232 -0.1661 0.3466
vn 0.9721 0.0376 0.2313
vn 0.0389 -0.0313 -0.9987
vn -0.3006 -0.0128 -0.9536
vn 0.6428 0.3308 -0.6910
vn 0.9133 0.2246 0.3398
vn 0.3997 0.0094 0.9166
vn 0.4652 0.2038 0.8614
vn 0.9478 0.2039 0.2452
vn -0.1795 0.6809 -0.7100
vn 0.3639 -0.5240 -0.7700
vn -0.9496 0.1935 0.2465
vn -0.9448 0.0472 0.3243
vn -0.8455 0.0672 -0.5297
vn -0.8226 0.1995 -0.5325
vn -0.4398 -0.0360 0.8973
vn 0.6552 0.5176 0.5502
vn 0.6710 -0.0248 0.7410
vn -0.0174 0.1145 -0.9933
vn -0.1861 0.2533 -0.9493
vn -0.8578 -0.1935 0.4762
vn -0.6798 -0.0309 0.7327
vn 0.7714 0.3024 -0.5598
vn -0.6915 -0.2814 -0.6653
vn -0.5927 0.2505 0.7654
vn 0.1514 0.0970 -0.9837
vn -0.2955 -0.6286 -0.7193
vn -0.6005 -0.4001 -0.6923
vn -0.5422 0.2986 -0.7854
vn 0.4146 0.6914 -0.5917
vn 0.0241 0.8869 -0.4613
vn -0.1150 0.1897 -0.9751
vn -0.1642 -0.5501 -0.8188
vn 0.7153 -0.4635 -0.5229
vn 0.7751 -0.5416 0.3253
vn 0.3651 -0.5049 0.7822
vn -0.3649 -0.5049 0.7822
vn -0.8317 -0.5121 0.2144
vn -0.7242 -0.5255 -0.4464
vn 0.3900 0.9204 0.0277
vn -0.2722 0.9223 -0.2741
vn -0.0684 0.9217 -0.3818
vn -0.2518 0.9189 0.3034
vn -0.4290 0.9031 0.0205
vn 0.4290 0.9031 0.0205
vn 0.4877 0.8658 0.1113
vn 0.8911 -0.4528 -0.0287
vn -0.5618 -0.4543 -0.6913
vn -0.2448 -0.0692 -0.9671
vn 0.9020 -0.0123 -0.4314
vn -0.5651 0.7866 -0.2488
vn -0.8308 -0.4235 0.3612
vn -0.6073 -0.1433 0.7814
vn -0.4629 0.8457 0.2655
vn -0.3234 0.8871 -0.3292
vn 0.4608 0.8810 0.1067
vn -0.6345 0.7654 -0.1069
vn 0.4148 0.8054 0.4233
vn 0.6073 -0.1433 0.7814
vn 0.4629 0.8457 0.2655
vn 0.8308 -0.4235 0.3612
vn 0.5651 0.7866 -0.2488
vn -0.7634 0.2868 0.5787
vn -0.1320 0.8589 0.4949
vn -0.7406 -0.4025 0.5380
vn -0.4675 -0.6323 0.6177
vn 0.2809 0.7042 0.6521
vn -0.0302 0.1057 0.9939
vn -0.0587 0.8774 0.4761
vn -0.2504 0.2495 0.9354
vn -0.5848 -0.5511 0.5951
vn 0.2236 0.7711 -0.5962
vn -0.3179 -0.6349 -0.7041
vn 0.1408 0.1225 -0.9824
vn 0.5855 -0.5765 0.5700
vn 0.7719 -0.0871 -0.6297
vn 0.8780 -0.1312 0.4603
vn 0.0645 0.7060 0.7053
vn 0.1470 0.8078 -0.5708
vn 0.2608 0.7541 0.6028
vn 0.4640 -0.2388 0.8530
vn 0.9394 -0.2387 0.2459
vn 0.9538 -0.2599 0.1504
vn 0.3589 -0.2599 0.8965
vn 0.9579 0.2429 0.1528
vn 0.3621 0.2429 0.8999
# 92 vertex normals

vt 0.2408 0.8982 0.0000
vt 0.2097 0.8968 0.0000
vt 0.2118 0.8812 0.0000
vt 0.2410 0.8830 0.0000
vt 0.1233 0.6573 0.0000
vt 0.0984 0.7077 0.0000
vt 0.0860 0.6903 0.0000
vt 0.1084 0.6525 0.0000
vt 0.1176 0.7182 0.0000
vt 0.0906 0.7766 0.0000
vt 0.0636 0.7527 0.0000
vt 0.2440 0.9176 0.0000
vt 0.2085 0.9138 0.0000
vt 0.1630 0.9110 0.0000
vt 0.1641 0.8915 0.0000
vt 0.1802 0.8989 0.0000
vt 0.1796 0.9073 0.0000
vt 0.0393 0.7229 0.0000
vt 0.0414 0.7081 0.0000
vt 0.1871 0.6517 0.0000
vt 0.1729 0.6779 0.0000
vt 0.1592 0.6713 0.0000
vt 0.1714 0.6422 0.0000
vt 0.1659 0.8747 0.0000
vt 0.1248 0.9139 0.0000
vt 0.1167 0.8912 0.0000
vt 0.1391 0.6643 0.0000
vt 0.1575 0.6313 0.0000
vt 0.1539 0.8555 0.0000
vt 0.2138 0.8662 0.0000
vt 0.1190 0.8624 0.0000
vt 0.1316 0.6235 0.0000
vt 0.1609 0.7428 0.0000
vt 0.1386 0.7492 0.0000
vt 0.1393 0.8383 0.0000
vt 0.1965 0.7980 0.0000
vt 0.1939 0.7882 0.0000
vt 0.2119 0.7902 0.0000
vt 0.2201 0.7975 0.0000
vt 0.1947 0.8029 0.0000
vt 0.2205 0.8031 0.0000
vt 0.2449 0.8675 0.0000
vt 0.1270 0.7819 0.0000
vt 0.2928 0.8849 0.0000
vt 0.2855 0.9153 0.0000
vt 0.2597 0.9144 0.0000
vt 0.2509 0.8969 0.0000
vt 0.2493 0.8844 0.0000
vt 0.2568 0.8700 0.0000
vt 0.2791 0.8699 0.0000
vt 0.1108 0.6234 0.0000
vt 0.1341 0.6119 0.0000
vt 0.1106 0.6117 0.0000
vt 0.1620 0.6199 0.0000
vt 0.1774 0.6312 0.0000
vt 0.1949 0.6423 0.0000
vt 0.0914 0.8145 0.0000
vt 0.0991 0.8050 0.0000
vt 0.1122 0.8092 0.0000
vt 0.1153 0.8240 0.0000
vt 0.1063 0.8355 0.0000
vt 0.0936 0.8316 0.0000
vt 0.0889 0.8228 0.0000
vt 0.0339 0.7464 0.0000
vt 0.0371 0.7634 0.0000
vt 0.0313 0.7582 0.0000
vt 0.1081 0.9176 0.0000
vt 0.1039 0.9100 0.0000
vt 0.0536 0.7881 0.0000
vt 0.0629 0.7938 0.0000
vt 0.0373 0.8137 0.0000
vt 0.0345 0.8109 0.0000
vt 0.0790 0.8572 0.0000
vt 0.0811 0.8700 0.0000
vt 0.0577 0.8754 0.0000
vt 0.0576 0.8687 0.0000
vt 0.0367 0.8181 0.0000
vt 0.0407 0.8154 0.0000
vt 0.0408 0.8175 0.0000
vt 0.0674 0.7998 0.0000
vt 0.0672 0.8056 0.0000
vt 0.0477 0.7843 0.0000
vt 0.0318 0.8084 0.0000
vt 0.0528 0.8740 0.0000
vt 0.0487 0.8674 0.0000
vt 0.0557 0.8655 0.0000
vt 0.0817 0.8850 0.0000
vt 0.0580 0.8827 0.0000
vt 0.0752 0.8521 0.0000
vt 0.0808 0.8974 0.0000
vt 0.0588 0.8895 0.0000
vt 0.2242 0.7921 0.0000
vt 0.2279 0.7971 0.0000
vt 0.2260 0.7997 0.0000
vt 0.2141 0.7856 0.0000
vt 0.1950 0.7840 0.0000
vt 0.1949 0.8056 0.0000
vt 0.2209 0.8059 0.0000
vt 0.1940 0.8197 0.0000
vt 0.1968 0.8105 0.0000
vt 0.2210 0.8115 0.0000
vt 0.2137 0.8197 0.0000
vt 0.1570 0.8072 0.0000
vt 0.1639 0.8131 0.0000
vt 0.1699 0.8270 0.0000
vt 0.1571 0.8029 0.0000
vt 0.1706 0.7744 0.0000
vt 0.1672 0.7801 0.0000
vt 0.1636 0.7965 0.0000
vt 0.0418 0.7020 0.0000
vt 0.0019 0.6999 0.0000
vt 0.0022 0.6977 0.0000
vt 0.0347 0.7275 0.0000
vt 0.0601 0.6728 0.0000
vt 0.0420 0.6875 0.0000
vt 0.0002 0.6973 0.0000
vt 0.0011 0.6924 0.0000
vt 0.0034 0.6929 0.0000
vt 0.0005 0.7073 0.0000
vt 0.0017 0.7051 0.0000
vt 0.1966 0.9008 0.0000
vt 0.1959 0.9084 0.0000
vt 0.1900 0.9051 0.0000
vt 0.1904 0.9031 0.0000
vt 0.0883 0.6759 0.0000
vt 0.0980 0.6596 0.0000
vt 0.1852 0.9044 0.0000
vt 0.1855 0.9028 0.0000
# 128 texture coords

o Tree02
g Tree02
usemtl 01___Default
s off
f 1/1/1 2/2/2 3/3/3 4/4/4 
f 5/5/5 6/6/6 7/7/7 8/8/8 
f 9/9/9 10/10/10 11/11/11 6/6/6 
f 12/12/12 8/13/8 2/2/2 1/1/1 
f 7/14/7 13/15/13 14/16/14 15/17/15 
f 6/6/6 11/11/11 16/18/16 17/19/17 
f 18/20/18 19/21/19 20/22/20 21/23/21 
f 2/2/2 13/15/13 22/24/22 3/3/3 
f 7/14/7 23/25/23 24/26/24 13/15/13 
f 21/23/21 20/22/20 25/27/25 26/28/26 
f 3/3/3 22/24/22 27/29/27 19/30/19 
f 13/15/13 24/26/24 28/31/28 22/24/22 
f 26/28/26 25/27/25 5/5/5 29/32/29 
f 19/21/19 27/33/27 30/34/30 20/22/20 
f 22/24/22 28/31/28 31/35/31 27/29/27 
f 32/36/32 33/37/33 34/38/34 35/39/35 
f 20/22/20 30/34/30 9/9/9 25/27/25 
f 36/40/36 32/36/32 35/39/35 37/41/37 
f 4/4/4 3/3/3 19/30/19 18/42/18 
f 25/27/25 9/9/9 6/6/6 5/5/5 
f 30/34/30 38/43/38 10/10/10 9/9/9 
f 39/44/39 40/45/40 41/46/41 42/47/42 43/48/43 44/49/44 45/50/45 
f 29/32/29 5/5/5 8/8/8 12/51/12 
f 40/52/40 29/32/29 12/51/12 41/53/41 
f 43/48/43 4/4/4 18/42/18 44/49/44 
f 39/54/39 26/28/26 29/32/29 40/52/40 
f 45/55/45 21/23/21 26/28/26 39/54/39 
f 44/56/44 18/20/18 21/23/21 45/55/45 
f 41/46/41 12/12/12 1/1/1 42/47/42 
f 42/47/42 1/1/1 4/4/4 43/48/43 
f 46/57/46 47/58/47 48/59/48 49/60/49 50/61/50 51/62/51 52/63/52 
f 23/64/23 11/11/11 46/65/46 52/66/52 
f 24/26/24 23/25/23 52/67/52 51/68/51 
f 53/69/53 54/70/54 55/71/55 56/72/56 
f 57/73/57 58/74/58 59/75/59 60/76/60 
f 10/10/10 38/43/38 48/59/48 47/58/47 
f 31/35/31 28/31/28 50/61/50 49/60/49 
f 56/77/56 55/71/55 61/78/61 62/79/62 
f 63/80/63 64/81/64 62/79/62 61/78/61 
f 54/70/54 63/80/63 61/78/61 55/71/55 
f 64/82/64 53/69/53 56/72/56 62/83/62 
f 46/65/46 11/11/11 53/69/53 64/82/64 
f 10/10/10 47/58/47 63/80/63 54/70/54 
f 47/58/47 46/57/46 64/81/64 63/80/63 
f 11/11/11 10/10/10 54/70/54 53/69/53 
f 59/84/59 65/85/65 66/86/66 60/76/60 
f 58/74/58 67/87/67 65/88/65 59/75/59 
f 68/89/68 57/73/57 60/76/60 66/86/66 
f 67/87/67 68/90/68 66/91/66 65/88/65 
f 24/26/24 51/68/51 68/90/68 67/87/67 
f 51/62/51 50/61/50 57/73/57 68/89/68 
f 28/31/28 24/26/24 67/87/67 58/74/58 
f 50/61/50 28/31/28 58/74/58 57/73/57 
f 35/39/35 69/92/69 70/93/70 37/94/37 
f 71/95/71 69/92/69 35/39/35 34/38/34 
f 33/37/33 72/96/72 71/95/71 34/38/34 
f 73/97/73 36/40/36 37/41/37 70/98/70 
f 72/99/72 74/100/74 69/101/69 71/102/71 
f 74/100/74 73/97/73 70/98/70 69/101/69 
f 31/35/31 49/60/49 75/103/75 76/104/76 
f 27/29/27 31/35/31 76/104/76 77/105/77 
f 49/60/49 48/59/48 78/106/78 75/103/75 
f 30/34/30 27/33/27 77/107/77 79/108/79 
f 48/59/48 38/43/38 80/109/80 78/106/78 
f 38/43/38 30/34/30 79/108/79 80/109/80 
f 76/104/76 75/103/75 73/97/73 74/100/74 
f 77/105/77 76/104/76 74/100/74 72/99/72 
f 75/103/75 78/106/78 36/40/36 73/97/73 
f 79/108/79 77/107/77 72/96/72 33/37/33 
f 78/106/78 80/109/80 32/36/32 36/40/36 
f 80/109/80 79/108/79 33/37/33 32/36/32 
f 81/110/81 17/19/17 82/111/82 83/112/83 
f 7/7/7 6/6/6 17/19/17 81/110/81 
f 11/11/11 23/64/23 84/113/84 16/18/16 
f 23/114/23 7/7/7 81/110/81 84/115/84 
f 82/116/82 85/117/85 86/118/86 83/112/83 
f 16/18/16 84/113/84 86/119/86 85/120/85 
f 84/115/84 81/110/81 83/112/83 86/118/86 
f 17/19/17 16/18/16 85/120/85 82/111/82 
f 87/121/87 88/122/88 89/123/89 90/124/90 
f 8/8/8 7/7/7 15/125/15 88/126/88 
f 13/15/13 2/2/2 87/121/87 14/16/14 
f 2/2/2 8/13/8 88/122/88 87/121/87 
f 89/123/89 91/127/91 92/128/92 90/124/90 
f 15/17/15 14/16/14 92/128/92 91/127/91 
f 88/122/88 15/17/15 91/127/91 89/123/89 
f 14/16/14 87/121/87 90/124/90 92/128/92 
# 87 polygons

