# 3ds Max Wavefront OBJ Exporter v0.97b - (c)2007 guruware
# File Created: 23.05.2020 22:54:42

#
# object Cube_767
#

v  54.7433 -14.5522 -19.7988
v  55.3391 -14.5417 -19.7956
v  55.4206 -14.5417 -34.1532
v  54.7350 -14.5571 -34.1570
v  55.4486 -15.0683 -34.1531
v  54.7190 -15.0723 -34.1578
v  55.3678 -15.0718 -19.7954
v  54.7926 -15.0296 -19.7993
v  55.3326 -0.1825 -19.3824
v  54.7006 -0.1784 -19.3791
v  54.7500 -0.1784 -34.1633
v  55.3410 -0.1776 -34.1671
v  54.7583 0.3199 -34.1632
v  55.4000 0.3600 -34.1679
v  54.7082 0.3332 -19.3790
v  55.3264 0.3273 -19.3828
v  54.7421 -15.0650 -34.1620
v  55.3378 -15.0682 -34.1515
v  55.4218 0.2954 -34.1515
v  54.7363 0.2991 -34.1669
v  55.4498 0.2952 -34.6895
v  54.7202 0.2999 -34.6935
v  55.3665 -15.0684 -34.7029
v  54.7913 -15.0645 -34.6607
v  55.3314 -15.0813 -19.7923
v  54.6994 -15.0848 -19.7882
v  54.6203 0.3305 -19.7882
v  55.3422 0.3344 -19.7874
v  54.6287 0.3303 -19.2900
v  55.4012 0.3353 -19.2498
v  54.7070 -15.0849 -19.2766
v  55.3252 -15.0809 -19.2825
v  54.7633 -11.8610 -19.3859
v  54.9500 -11.8509 -19.3848
v  54.9500 -0.1467 -19.3848
v  54.7633 -0.1568 -19.3859
v  54.8173 -11.8625 -34.4011
v  55.0321 -11.8509 -34.3999
v  55.1137 -14.5170 -34.3995
v  54.8441 -14.5316 -34.4010
v  54.8175 -14.4785 -23.5502
v  55.0561 -14.5452 -23.5489
v  55.0338 -14.5561 -19.3844
v  54.8072 -14.4580 -19.3856
v  54.7784 -11.8614 -23.5504
v  54.9729 -11.8509 -23.5494
v  55.0921 -14.5275 -30.3633
v  55.0099 -11.8509 -30.3638
v  54.8027 -11.8621 -30.3649
v  54.8341 -14.5117 -30.3647
v  54.9729 -0.1467 -23.5494
v  54.8027 -0.1579 -30.3649
v  55.0099 -0.1467 -30.3638
v  55.0321 -0.1467 -34.3999
v  54.8173 -0.1583 -34.4011
v  54.7784 -0.1572 -23.5504
v  55.0947 -14.8003 -32.8564
v  55.2816 -14.8003 -32.8564
v  55.2816 0.2131 -33.0989
v  55.0665 0.2131 -33.0989
v  55.2816 0.1938 -34.2943
v  55.0116 0.1921 -34.3988
v  55.2816 -14.8237 -34.3025
v  55.0607 -14.8236 -34.2969
# 64 vertices

vn -0.9985 0.0547 -0.0031
vn -0.0000 0.0000 -1.0000
vn 0.9901 -0.1341 0.0422
vn 0.0000 -0.0000 1.0000
vn -0.0126 -0.9896 0.1433
vn 0.0003 1.0000 0.0033
vn 0.9958 -0.0917 -0.0043
vn -0.0000 -0.0007 -1.0000
vn -0.9989 0.0436 0.0193
vn 0.0000 0.0006 1.0000
vn 0.0644 0.9968 -0.0478
vn -0.0430 -0.9984 0.0363
vn -0.0000 -0.0009 1.0000
vn -0.9951 0.0970 0.0187
vn -0.0000 -0.0020 -1.0000
vn 0.9951 -0.0972 -0.0201
vn -0.0288 -0.9063 -0.4217
vn 0.0286 0.7782 0.6274
vn -0.0000 -0.0005 -1.0000
vn -0.9970 0.0778 -0.0066
vn -0.0000 -0.0011 1.0000
vn 0.9970 -0.0777 0.0071
vn 0.0252 0.7185 -0.6951
vn -0.0283 -0.9380 0.3455
vn 0.0000 0.0000 1.0000
vn 0.0000 0.0000 -1.0000
vn 0.8282 -0.5589 0.0405
vn -0.0235 -0.9988 0.0426
vn 0.0143 0.9999 -0.0000
vn 0.0143 0.9999 -0.0010
vn -0.0250 -0.9988 0.0431
vn 0.9401 -0.3387 0.0375
vn 0.0333 0.9994 0.0005
vn 0.9953 -0.0911 0.0324
vn -0.0265 -0.9987 0.0425
vn 0.0144 0.9999 -0.0001
vn -1.0000 0.0000 0.0000
vn -1.0000 0.0000 -0.0000
vn -0.0333 -0.9989 0.0322
vn 0.0333 0.9994 0.0004
vn -0.0333 -0.9989 0.0321
vn -0.0006 0.0004 1.0000
vn -0.9077 0.0795 -0.4121
vn 0.0005 0.0113 -0.9999
vn 0.9077 -0.0795 0.4121
vn -0.0267 -0.8353 0.5492
vn 0.0332 0.9950 -0.0942
# 47 vertex normals

vt 0.1279 0.1323 -0.0606
vt 0.1280 0.1323 0.0938
vt 0.1280 0.1861 0.0946
vt 0.1279 0.1861 -0.0832
vt 0.1300 0.1861 0.0944
vt 0.1298 0.1861 -0.0946
vt 0.1300 0.1323 0.0938
vt 0.1297 0.1323 -0.0546
vt 0.0220 0.1323 0.0807
vt 0.0219 0.1323 -0.0781
vt 0.0219 0.1861 -0.0860
vt 0.0220 0.1861 0.0625
vt 0.0200 0.1861 -0.0771
vt 0.0200 0.1861 0.0846
vt 0.0200 0.1323 -0.0692
vt 0.0201 0.1323 0.0860
vt 0.9751 0.0848 -2.0538
vt 0.9764 0.0845 -0.4605
vt 0.3813 0.0845 1.9869
vt 0.3797 0.0850 0.1533
vt 0.3814 0.1054 2.0538
vt 0.3796 0.1054 0.1027
vt 0.9765 0.1059 -0.3918
vt 0.9751 0.1041 -1.9294
vt 0.9800 0.1355 -0.3680
vt 0.9788 0.1353 -2.0639
vt 0.3796 0.1352 -0.0395
vt 0.3810 0.1354 1.8976
vt 0.3797 0.1159 -0.0098
vt 0.3811 0.1145 2.0639
vt 0.9788 0.1154 -2.0360
vt 0.9800 0.1157 -0.3772
vt 0.3051 0.0200 -0.5671
vt 0.3051 0.0200 -0.2523
vt 0.0200 0.0200 0.8120
vt 0.0200 0.0200 0.4972
vt 0.3051 0.3856 -0.6146
vt 0.3051 0.3856 -0.2523
vt 0.3701 0.3856 -0.3575
vt 0.3701 0.3856 -0.8122
vt 0.3688 0.1214 -0.7524
vt 0.3708 0.1214 -0.3573
vt 0.3711 0.0200 -0.3575
vt 0.3684 0.0200 -0.7296
vt 0.3051 0.1214 -0.5801
vt 0.3051 0.1214 -0.2521
vt 0.3704 0.2874 -0.3576
vt 0.3051 0.2874 -0.2525
vt 0.3051 0.2874 -0.6019
vt 0.3696 0.2874 -0.7901
vt 0.0200 0.1214 0.8122
vt 0.0200 0.2874 0.4624
vt 0.0200 0.2874 0.8119
vt 0.0200 0.3856 0.8120
vt 0.0200 0.3856 0.4498
vt 0.0200 0.1214 0.4842
vt 0.9244 0.0200 -1.1952
vt 0.9247 0.0200 -0.7270
vt 0.3801 0.0288 1.3033
vt 0.3796 0.0288 0.7645
vt 0.3808 0.0722 1.2843
vt 0.3803 0.0759 0.6063
vt 0.9256 0.0725 -0.7500
vt 0.9251 0.0722 -1.3033
# 64 texture coords

o Cube_767
g Cube_767
s off
f 1/1/1 2/2/1 3/3/1 4/4/1 
f 4/4/2 3/3/2 5/5/2 6/6/2 
f 6/6/3 5/5/3 7/7/3 8/8/3 
f 8/8/4 7/7/4 2/2/4 1/1/4 
f 4/4/5 6/6/5 8/8/5 1/1/5 
f 5/5/6 3/3/6 2/2/6 7/7/6 
f 9/9/7 10/10/7 11/11/7 12/12/7 
f 12/12/8 11/11/8 13/13/8 14/14/8 
f 14/14/9 13/13/9 15/15/9 16/16/9 
f 16/16/10 15/15/10 10/10/10 9/9/10 
f 12/12/11 14/14/11 16/16/11 9/9/11 
f 13/13/12 11/11/12 10/10/12 15/15/12 
f 17/17/13 18/18/13 19/19/13 20/20/13 
f 20/20/14 19/19/14 21/21/14 22/22/14 
f 22/22/15 21/21/15 23/23/15 24/24/15 
f 24/24/16 23/23/16 18/18/16 17/17/16 
f 20/20/17 22/22/17 24/24/17 17/17/17 
f 21/21/18 19/19/18 18/18/18 23/23/18 
f 25/25/19 26/26/19 27/27/19 28/28/19 
f 28/28/20 27/27/20 29/29/20 30/30/20 
f 30/30/21 29/29/21 31/31/21 32/32/21 
f 32/32/22 31/31/22 26/26/22 25/25/22 
f 28/28/23 30/30/23 32/32/23 25/25/23 
f 29/29/24 27/27/24 26/26/24 31/31/24 
f 33/33/25 34/34/25 35/35/25 36/36/25 
f 37/37/26 38/38/26 39/39/26 40/40/26 
f 41/41/27 42/42/27 43/43/27 44/44/27 
f 44/44/25 43/43/25 34/34/25 33/33/25 
f 45/45/28 41/41/28 44/44/28 33/33/28 
f 42/42/29 46/46/29 34/34/29 43/43/29 
f 47/47/30 48/48/30 46/46/30 42/42/30 
f 49/49/31 50/50/31 41/41/31 45/45/31 
f 50/50/32 47/47/32 42/42/32 41/41/32 
f 34/34/33 46/46/33 51/51/33 35/35/33 
f 40/40/34 39/39/34 47/47/34 50/50/34 
f 37/37/35 40/40/35 50/50/35 49/49/35 
f 39/39/36 38/38/36 48/48/36 47/47/36 
f 45/45/37 46/46/37 48/48/37 49/49/37 
f 52/52/38 53/53/38 54/54/38 55/55/38 
f 36/36/38 35/35/38 51/51/38 56/56/38 
f 37/37/39 49/49/39 52/52/39 55/55/39 
f 48/48/40 38/38/40 54/54/40 53/53/40 
f 49/49/25 48/48/25 53/53/25 52/52/25 
f 46/46/2 45/45/2 56/56/2 51/51/2 
f 38/38/26 37/37/26 55/55/26 54/54/26 
f 45/45/41 33/33/41 36/36/41 56/56/41 
f 57/57/42 58/58/42 59/59/42 60/60/42 
f 60/60/43 59/59/43 61/61/43 62/62/43 
f 62/62/44 61/61/44 63/63/44 64/64/44 
f 64/64/45 63/63/45 58/58/45 57/57/45 
f 60/60/46 62/62/46 64/64/46 57/57/46 
f 61/61/47 59/59/47 58/58/47 63/63/47 
# 52 polygons

