# 3ds Max Wavefront OBJ Exporter v0.97b - (c)2007 guruware
# File Created: 23.05.2020 22:55:07

#
# object Cube_819
#

v  55.0406 -0.1645 -2.3480
v  55.2273 -0.1544 -2.3469
v  55.3093 -0.1544 -17.3620
v  55.0945 -0.1660 -17.3632
v  55.3910 -14.5170 -17.3616
v  55.1213 -14.5316 -17.3631
v  55.3110 -14.5561 -2.3465
v  55.0844 -14.4580 -2.3477
v  55.3581 -14.8138 -2.3795
v  55.5450 -14.8138 -2.3795
v  55.5450 0.2015 -2.3795
v  55.3299 0.2015 -2.3795
v  55.5450 0.2015 -3.6796
v  55.2750 0.2015 -3.6796
v  55.5450 -14.8138 -3.9304
v  55.3240 -14.8138 -3.8203
v  55.3719 -14.8003 -15.8185
v  55.5589 -14.8003 -15.8185
v  55.5589 0.2131 -16.0610
v  55.3437 0.2131 -16.0610
v  55.5589 0.1938 -17.2564
v  55.2888 0.1921 -17.3609
v  55.5589 -14.8237 -17.2646
v  55.3379 -14.8236 -17.2590
v  55.0206 -14.5522 -2.3604
v  55.6163 -14.5417 -2.3572
v  55.6978 -14.5417 -17.3430
v  55.0123 -14.5571 -17.3468
v  55.7258 -15.0797 -17.3429
v  54.9962 -15.0837 -17.3476
v  55.6450 -15.0931 -2.3570
v  55.0698 -15.0509 -2.3609
v  55.6099 -0.1825 -2.3445
v  54.9779 -0.1784 -2.3412
v  54.8963 -0.1784 -17.3772
v  55.6182 -0.1776 -17.3810
v  54.9047 0.3199 -17.3771
v  55.6772 0.3600 -17.3818
v  54.9855 0.3332 -2.3411
v  55.6036 0.3273 -2.3449
# 40 vertices

vn -1.0000 0.0000 -0.0000
vn -0.0000 0.0000 -1.0000
vn 0.9991 -0.0390 0.0138
vn 0.0000 0.0000 1.0000
vn -0.2818 -0.9507 0.1296
vn 0.2674 0.9636 -0.0034
vn 0.0000 0.0001 1.0000
vn -1.0000 0.0094 -0.0000
vn -0.0026 -0.0041 -1.0000
vn 1.0000 -0.0094 -0.0000
vn -0.1252 -0.4247 0.8966
vn 0.2848 0.9170 -0.2791
vn -0.0016 0.0001 1.0000
vn -0.9879 0.0093 -0.1547
vn 0.0014 0.0035 -1.0000
vn 0.9879 -0.0093 0.1547
vn -0.1264 -0.4243 0.8967
vn -1.0000 0.0059 -0.0010
vn -0.0001 0.0000 -1.0000
vn 0.9999 -0.0145 0.0078
vn 0.0001 -0.0000 1.0000
vn -0.1126 -0.9034 0.4138
vn 0.0119 0.9999 -0.0016
vn 1.0000 -0.0098 -0.0014
vn -0.0000 -0.0002 -1.0000
vn -1.0000 0.0051 0.0076
vn 0.0000 0.0002 1.0000
vn 0.5108 0.8493 -0.1331
vn -0.3250 -0.8091 0.4896
# 29 vertex normals

vt 0.0200 0.0200 0.2053
vt 0.0200 0.0200 0.3353
vt 0.0200 0.3794 0.3353
vt 0.0200 0.3794 0.1857
vt 0.3546 0.3794 -0.1475
vt 0.3546 0.3794 -0.3353
vt 0.3555 0.0200 -0.1475
vt 0.3530 0.0200 -0.3012
vt 0.9768 0.0939 -0.5818
vt 0.9772 0.0939 -0.3545
vt 0.3652 0.0939 0.6327
vt 0.3647 0.0939 0.3712
vt 0.3652 0.1484 0.6241
vt 0.3646 0.1483 0.2958
vt 0.9772 0.1589 -0.3648
vt 0.9767 0.1542 -0.6327
vt 0.9786 0.0200 -0.5821
vt 0.9791 0.0200 -0.3540
vt 0.3650 0.0302 0.6347
vt 0.3646 0.0302 0.3723
vt 0.3658 0.0805 0.6254
vt 0.3653 0.0848 0.2953
vt 0.9800 0.0808 -0.3652
vt 0.9795 0.0805 -0.6347
vt 0.3646 0.1679 -0.0991
vt 0.3649 0.1679 0.1571
vt 0.3649 0.3898 0.1570
vt 0.3646 0.3898 -0.1380
vt 0.3726 0.3898 0.1565
vt 0.3721 0.3898 -0.1571
vt 0.3728 0.1679 0.1567
vt 0.3718 0.1679 -0.0896
vt 0.0284 0.3886 0.1755
vt 0.0278 0.3885 -0.1110
vt 0.0276 0.6234 -0.1852
vt 0.0282 0.6235 0.1422
vt 0.0201 0.6234 -0.1692
vt 0.0201 0.6236 0.1821
vt 0.0200 0.3885 -0.0950
vt 0.0206 0.3886 0.1852
# 40 texture coords

o Cube_819
g Cube_819
s off
f 1/1/1 2/2/1 3/3/1 4/4/1 
f 4/4/2 3/3/2 5/5/2 6/6/2 
f 6/6/3 5/5/3 7/7/3 8/8/3 
f 8/8/4 7/7/4 2/2/4 1/1/4 
f 4/4/5 6/6/5 8/8/5 1/1/5 
f 5/5/6 3/3/6 2/2/6 7/7/6 
f 9/9/7 10/10/7 11/11/7 12/12/7 
f 12/12/8 11/11/8 13/13/8 14/14/8 
f 14/14/9 13/13/9 15/15/9 16/16/9 
f 16/16/10 15/15/10 10/10/10 9/9/10 
f 12/12/11 14/14/11 16/16/11 9/9/11 
f 13/13/12 11/11/12 10/10/12 15/15/12 
f 17/17/13 18/18/13 19/19/13 20/20/13 
f 20/20/14 19/19/14 21/21/14 22/22/14 
f 22/22/15 21/21/15 23/23/15 24/24/15 
f 24/24/16 23/23/16 18/18/16 17/17/16 
f 20/20/17 22/22/17 24/24/17 17/17/17 
f 21/21/12 19/19/12 18/18/12 23/23/12 
f 25/25/18 26/26/18 27/27/18 28/28/18 
f 28/28/19 27/27/19 29/29/19 30/30/19 
f 30/30/20 29/29/20 31/31/20 32/32/20 
f 32/32/21 31/31/21 26/26/21 25/25/21 
f 28/28/22 30/30/22 32/32/22 25/25/22 
f 29/29/23 27/27/23 26/26/23 31/31/23 
f 33/33/24 34/34/24 35/35/24 36/36/24 
f 36/36/25 35/35/25 37/37/25 38/38/25 
f 38/38/26 37/37/26 39/39/26 40/40/26 
f 40/40/27 39/39/27 34/34/27 33/33/27 
f 36/36/28 38/38/28 40/40/28 33/33/28 
f 37/37/29 35/35/29 34/34/29 39/39/29 
# 30 polygons

