# 3ds Max Wavefront OBJ Exporter v0.97b - (c)2007 guruware
# File Created: 23.05.2020 22:44:40

#
# object Cube_779
#

v  65.0968 -14.5522 -19.7988
v  65.6925 -14.5417 -19.7956
v  65.7740 -14.5417 -34.1532
v  65.0885 -14.5571 -34.1570
v  65.8020 -15.0683 -34.1531
v  65.0724 -15.0723 -34.1578
v  65.7212 -15.0718 -19.7954
v  65.1460 -15.0296 -19.7993
v  65.6861 -0.1825 -19.3824
v  65.0540 -0.1784 -19.3791
v  65.1034 -0.1784 -34.1633
v  65.6944 -0.1776 -34.1671
v  65.1117 0.3199 -34.1632
v  65.7534 0.3600 -34.1679
v  65.0617 0.3332 -19.3790
v  65.6798 0.3273 -19.3828
v  65.0956 -15.0650 -34.1620
v  65.6913 -15.0682 -34.1515
v  65.7753 0.2954 -34.1515
v  65.0897 0.2991 -34.1669
v  65.8032 0.2952 -34.6895
v  65.0736 0.2999 -34.6935
v  65.7200 -15.0684 -34.7029
v  65.1448 -15.0645 -34.6607
v  65.6849 -15.0813 -19.7923
v  65.0528 -15.0848 -19.7882
v  64.9738 0.3305 -19.7882
v  65.6956 0.3344 -19.7874
v  64.9821 0.3303 -19.2900
v  65.7547 0.3353 -19.2498
v  65.0604 -15.0849 -19.2766
v  65.6786 -15.0809 -19.2825
v  65.3053 -0.1315 -19.3859
v  65.4919 -0.1214 -19.3848
v  65.5740 -0.1214 -34.3999
v  65.3592 -0.1330 -34.4011
v  65.5791 -14.5170 -34.3995
v  65.3094 -14.5316 -34.4010
v  65.4991 -14.5561 -19.3844
v  65.2725 -14.4580 -19.3856
v  65.4481 -14.8003 -32.8564
v  65.6351 -14.8003 -32.8564
v  65.6350 0.2131 -33.0989
v  65.4199 0.2131 -33.0989
v  65.6350 0.1938 -34.2943
v  65.3650 0.1921 -34.3988
v  65.6351 -14.8237 -34.3025
v  65.4141 -14.8236 -34.2969
v  65.4481 -14.8003 -19.5293
v  65.6351 -14.8003 -19.5293
v  65.6351 0.2131 -19.7719
v  65.4199 0.2131 -19.7719
v  65.6351 0.1938 -20.9673
v  65.3650 0.1921 -21.0718
v  65.6351 -14.8237 -20.9754
v  65.4141 -14.8236 -20.9699
# 56 vertices

vn -0.9985 0.0547 -0.0031
vn -0.0000 0.0000 -1.0000
vn 0.9901 -0.1341 0.0422
vn 0.0000 -0.0000 1.0000
vn -0.0126 -0.9896 0.1433
vn 0.0003 1.0000 0.0033
vn 0.9958 -0.0917 -0.0043
vn -0.0000 -0.0007 -1.0000
vn -0.9989 0.0436 0.0193
vn 0.0000 0.0006 1.0000
vn 0.0644 0.9968 -0.0478
vn -0.0430 -0.9984 0.0363
vn -0.0000 -0.0009 1.0000
vn -0.9951 0.0970 0.0186
vn -0.0000 -0.0020 -1.0000
vn 0.9951 -0.0972 -0.0201
vn -0.0288 -0.9063 -0.4217
vn 0.0286 0.7782 0.6274
vn -0.0000 -0.0005 -1.0000
vn -0.9970 0.0778 -0.0066
vn -0.0000 -0.0011 1.0000
vn 0.9970 -0.0777 0.0071
vn 0.0252 0.7185 -0.6951
vn -0.0283 -0.9380 0.3455
vn -1.0000 0.0000 -0.0000
vn 0.0000 0.0000 -1.0000
vn 0.9391 -0.3417 0.0376
vn -0.0000 0.0000 1.0000
vn -0.0351 -0.9985 0.0421
vn 0.0331 0.9995 -0.0012
vn -0.0006 0.0004 1.0000
vn -0.9077 0.0795 -0.4121
vn 0.0005 0.0113 -0.9999
vn 0.9077 -0.0795 0.4120
vn -0.0267 -0.8353 0.5492
vn 0.0332 0.9950 -0.0942
# 36 vertex normals

vt 0.3566 0.1183 0.0014
vt 0.3558 0.1190 0.0014
vt 0.3558 0.1174 0.0014
vt 0.3569 0.1173 0.0014
vt 0.3570 0.0919 0.0014
vt 0.3848 0.1178 -0.3476
vt 0.9376 0.0302 0.0000
vt 0.9517 0.0200 0.0000
vt 0.9634 0.0359 0.0000
vt 0.9522 0.0442 0.0000
vt 0.3483 0.1453 0.0014
vt 0.3327 0.1185 0.3476
vt 0.0439 0.9507 -0.0264
vt 0.0438 0.9509 -0.0264
vt 0.0438 0.9507 -0.0264
vt 0.0438 0.9505 -0.0264
vt 0.0488 0.9215 -0.0264
vt 0.0685 0.9506 0.2640
vt 0.7277 0.3207 0.0000
vt 0.7403 0.3294 0.0000
vt 0.7281 0.3457 0.0000
vt 0.7160 0.3373 0.0000
vt 0.0387 0.9800 -0.0264
vt 0.0200 0.9514 -0.2640
vt 0.0302 0.3238 0.5443
vt 0.0442 0.3218 0.5443
vt 0.0900 0.9068 0.5443
vt 0.0740 0.9090 0.5443
vt 0.1879 0.9410 0.0000
vt 0.1874 0.9573 0.0000
vt 0.1866 0.9579 0.0000
vt 0.1872 0.9405 0.0000
vt 0.7049 0.3616 0.0000
vt 0.7025 0.3789 0.0000
vt 0.1113 0.3343 0.0000
vt 0.1132 0.3207 0.0000
vt 0.3173 0.4036 0.0000
vt 0.3159 0.3900 0.0000
vt 0.3167 0.3905 0.0000
vt 0.3181 0.4046 0.0000
vt 0.0638 0.9104 0.9310
vt 0.0200 0.3246 0.5443
vt 0.1002 0.9056 0.5443
vt 0.0543 0.3207 -0.9310
vt 0.2796 0.3900 -0.6887
vt 0.2945 0.3908 0.6887
vt 0.2893 0.9798 0.5409
vt 0.2722 0.9788 0.6887
vt 0.1282 0.9441 0.0000
vt 0.1113 0.9411 0.0000
vt 0.1117 0.9405 0.0000
vt 0.1298 0.9436 0.0000
vt 0.9266 0.0623 0.0000
vt 0.9260 0.0808 0.0000
vt 0.3327 0.0347 0.0000
vt 0.3331 0.0200 0.0000
vt 0.0808 0.9216 0.0000
vt 0.0803 0.9364 0.0000
vt 0.0796 0.9366 0.0000
vt 0.0801 0.9215 0.0000
vt 0.2620 0.9785 0.6887
vt 0.2693 0.3900 0.6887
vt 0.2995 0.9796 0.6887
vt 0.3048 0.3906 0.6887
vt 0.0248 0.3096 1.7406
vt 0.0248 0.3096 2.7140
vt 0.3216 0.3046 2.7140
vt 0.3216 0.3046 1.5938
vt 0.3168 0.0200 -1.3078
vt 0.3168 0.0200 -2.7140
vt 0.0200 0.0242 -1.3078
vt 0.0200 0.0264 -2.4584
vt 0.1113 0.3920 -4.4939
vt 0.1113 0.3916 -2.7335
vt 0.1291 0.9290 4.9003
vt 0.1290 0.9294 2.8744
vt 0.1718 0.9276 4.8290
vt 0.1755 0.9280 2.2797
vt 0.1631 0.3900 -2.8199
vt 0.1628 0.3904 -4.9003
vt 0.1866 0.3920 -4.4939
vt 0.1866 0.3916 -2.7335
vt 0.2044 0.9290 4.9003
vt 0.2044 0.9294 2.8744
vt 0.2472 0.9276 4.8289
vt 0.2509 0.9280 2.2797
vt 0.2384 0.3900 -2.8199
vt 0.2382 0.3904 -4.9003
# 88 texture coords

o Cube_779
g Cube_779
s off
f 1/1/1 2/2/1 3/3/1 4/4/1 
f 4/4/2 3/3/2 5/5/2 6/6/2 
f 6/7/3 5/8/3 7/9/3 8/10/3 
f 8/11/4 7/12/4 2/2/4 1/1/4 
f 4/4/5 6/6/5 8/11/5 1/1/5 
f 5/5/6 3/3/6 2/2/6 7/12/6 
f 9/13/7 10/14/7 11/15/7 12/16/7 
f 12/16/8 11/15/8 13/17/8 14/18/8 
f 14/19/9 13/20/9 15/21/9 16/22/9 
f 16/23/10 15/24/10 10/14/10 9/13/10 
f 12/16/11 14/18/11 16/23/11 9/13/11 
f 13/17/12 11/15/12 10/14/12 15/24/12 
f 17/25/13 18/26/13 19/27/13 20/28/13 
f 20/29/14 19/30/14 21/31/14 22/32/14 
f 22/33/15 21/34/15 23/35/15 24/36/15 
f 24/37/16 23/38/16 18/39/16 17/40/16 
f 20/28/17 22/41/17 24/42/17 17/25/17 
f 21/43/18 19/27/18 18/26/18 23/44/18 
f 25/45/19 26/46/19 27/47/19 28/48/19 
f 28/49/20 27/50/20 29/51/20 30/52/20 
f 30/53/21 29/54/21 31/55/21 32/56/21 
f 32/57/22 31/58/22 26/59/22 25/60/22 
f 28/48/23 30/61/23 32/62/23 25/45/23 
f 29/63/24 27/47/24 26/46/24 31/64/24 
f 33/65/25 34/66/25 35/67/25 36/68/25 
f 36/68/26 35/67/26 37/69/26 38/70/26 
f 38/70/27 37/69/27 39/71/27 40/72/27 
f 40/72/28 39/71/28 34/66/28 33/65/28 
f 36/68/29 38/70/29 40/72/29 33/65/29 
f 37/69/30 35/67/30 34/66/30 39/71/30 
f 41/73/31 42/74/31 43/75/31 44/76/31 
f 44/76/32 43/75/32 45/77/32 46/78/32 
f 46/78/33 45/77/33 47/79/33 48/80/33 
f 48/80/34 47/79/34 42/74/34 41/73/34 
f 44/76/35 46/78/35 48/80/35 41/73/35 
f 45/77/36 43/75/36 42/74/36 47/79/36 
f 49/81/31 50/82/31 51/83/31 52/84/31 
f 52/84/32 51/83/32 53/85/32 54/86/32 
f 54/86/33 53/85/33 55/87/33 56/88/33 
f 56/88/34 55/87/34 50/82/34 49/81/34 
f 52/84/35 54/86/35 56/88/35 49/81/35 
f 53/85/36 51/83/36 50/82/36 55/87/36 
# 42 polygons

