# File produced by Open Asset Import Library (http://www.assimp.sf.net)
# (assimp v3.1.206520482)

mtllib dirtSquare.mtl

# 80 vertex positions
v -11.5435 0 14.8162
v -11.5435 0 11.5907
v 20.0497 0 11.5907
v 20.0497 0 14.8162
v -10.5435 2.78464 13.8162
v 19.0497 2.78464 13.8162
v 19.0497 2.78464 11.5907
v -10.5435 2.78464 11.5907
v -11.5435 1.57183 14.8162
v 20.0497 1.57183 14.8162
v 20.0497 1.57183 11.5907
v 20.0497 1.57183 -16.9062
v 20.0497 0 -16.9062
v -11.5435 0 -16.9062
v -11.5435 1.57183 -16.9062
v -11.5435 0 -13.6679
v -11.5435 1.57183 -13.6679
v 19.0497 2.78464 -15.9062
v -10.5435 2.78464 -15.9062
v -10.5435 2.78464 -13.6679
v -11.5435 0 -10.0288
v 20.0497 0 -13.6679
v 20.0497 0 -10.0288
v 19.0497 2.85312 -13.3721
v 19.0497 2.78464 -13.6679
v -10.5435 2.85312 -13.3721
v 20.0497 1.57183 -13.6679
v 20.0497 1.57183 -10.0288
v -11.5435 0 -5.765
v -11.5435 1.57183 -5.765
v -11.5435 1.57183 -10.0288
v -10.5435 2.78464 -5.765
v -10.5435 2.9619 -6.66223
v -11.5435 1.57183 -10.0288
v 20.0497 0 -5.765
v 19.0497 2.78464 -5.765
v 19.0497 2.9619 -6.66223
v 20.0497 1.57183 -5.765
v -11.5435 0 -1.71606
v -11.5435 1.57183 -1.71606
v -10.5435 2.92803 -5.07579
v 20.0497 0 -1.71606
v 19.0497 2.92803 -5.07579
v 20.0497 1.57183 -1.71606
v -11.5435 0 2.43648
v -11.5435 1.57183 2.43648
v -10.5435 2.78464 2.43648
v -10.5435 2.94477 1.64711
v 20.0497 0 2.43648
v 19.0497 2.78464 2.43648
v 19.0497 2.94477 1.64711
v 20.0497 1.57183 2.43648
v -11.5435 0 6.86997
v -11.5435 1.57183 6.86997
v -11.5435 1.57183 6.86997
v -10.5435 2.98645 3.49861
v 20.0497 0 6.86997
v 19.0497 2.98645 3.49861
v 20.0497 1.57183 6.86997
v -11.5435 1.57183 11.5907
v -10.5435 3.02419 10.2483
v 19.0497 3.02419 10.2483
v 19.0497 3.21489 -11.7001
v 19.0497 3.29863 -10.0272
v -10.5435 3.26928 -8.34513
v -10.5435 3.29863 -10.0272
v 19.0497 3.26928 -8.34513
v -10.5435 3.30268 -1.71582
v -10.5435 3.25336 -3.39586
v 19.0497 3.25336 -3.39586
v 19.0497 3.30268 -1.71582
v -10.5435 3.26173 -0.0344113
v 19.0497 3.26173 -0.0344113
v -10.5435 3.31233 6.87046
v -10.5435 3.26322 5.18454
v 19.0497 3.26322 5.18454
v 19.0497 3.31233 6.87046
v -10.5435 3.28209 8.55937
v 19.0497 3.28209 8.55937
v -10.5435 3.21489 -11.7001

# 128 UV coordinates
vt 0.99251 0.45871 0
vt 0.992031 0.508576 0
vt 0.503601 0.503878 0
vt 0.504081 0.454011 0
vt 0.035112 0.023549 0
vt 0.469005 0.0252187 0
vt 0.474614 0.0584002 0
vt 0.0308768 0.0575242 0
vt 0.410173 0.995361 0
vt 0.385872 0.995543 0
vt 0.382205 0.507104 0
vt 0.406506 0.506921 0
vt 0.454011 0.993423 0
vt 0.455321 0.943579 0
vt 0.479611 0.944216 0
vt 0.478301 0.994061 0
vt 0.0247982 0.9995 0
vt 0.0005 0.999081 0
vt 0.00891683 0.5107 0
vt 0.033215 0.511119 0
vt 0.419998 0.997372 0
vt 0.420108 0.947292 0
vt 0.444415 0.947348 0
vt 0.444307 0.997426 0
vt 0.0160683 0.0005 0
vt 0.48722 0.000904553 0
vt 0.500843 0.0529222 0
vt 0.46902 0.478979 0
vt 0.486863 0.501629 0
vt 0.0160683 0.50774 0
vt 0.0358852 0.482523 0
vt 0.00201293 0.450509 0
vt 0.0312831 0.446545 0
vt 0.988817 0.842815 0
vt 0.988276 0.899075 0
vt 0.499844 0.894377 0
vt 0.500385 0.838117 0
vt 0.47408 0.438605 0
vt 0.474058 0.446328 0
vt 0.0314721 0.440182 0
vt 0.464072 0.609443 0
vt 0.465545 0.553195 0
vt 0.48984 0.553831 0
vt 0.488367 0.610079 0
vt 0.42024 0.891019 0
vt 0.4204 0.825094 0
vt 0.444702 0.825153 0
vt 0.444544 0.891077 0
vt 0.502633 0.388314 0
vt 0.499461 0.4514 0
vt 0.0293278 0.321963 0
vt 0.0299718 0.335908 0
vt 0.00161575 0.387621 0
vt 0.0005 0.387539 0
vt 0.00457582 0.319879 0
vt 0.989451 0.776896 0
vt 0.50102 0.772198 0
vt 0.474447 0.322532 0
vt 0.474429 0.336289 0
vt 0.462348 0.675347 0
vt 0.486642 0.675983 0
vt 0.523309 0.379141 0
vt 0.523309 0.448783 0
vt 0.420556 0.762495 0
vt 0.444856 0.762556 0
vt 0.0160683 0.313009 0
vt 0.0293405 0.311374 0
vt 0.990053 0.714299 0
vt 0.501622 0.709601 0
vt 0.474461 0.311943 0
vt 0.46071 0.737927 0
vt 0.485003 0.738563 0
vt 0.503104 0.261033 0
vt 0.420857 0.698348 0
vt 0.445157 0.698312 0
vt 0.02949 0.196783 0
vt 0.029475 0.208899 0
vt 0.000833298 0.259966 0
vt 0.00446904 0.198171 0
vt 0.99067 0.650101 0
vt 0.502239 0.645403 0
vt 0.474615 0.197355 0
vt 0.474599 0.20947 0
vt 0.459029 0.802107 0
vt 0.483322 0.802743 0
vt 0.523309 0.245184 0
vt 0.523309 0.313009 0
vt 0.420758 0.62981 0
vt 0.445056 0.629775 0
vt 0.00148729 0.129713 0
vt 0.00265998 0.129769 0
vt 0.0305518 0.180327 0
vt 0.991329 0.581559 0
vt 0.502899 0.576861 0
vt 0.474633 0.181076 0
vt 0.457234 0.870625 0
vt 0.481526 0.871262 0
vt 0.503585 0.130111 0
vt 0.421084 0.556784 0
vt 0.445383 0.556847 0
vt 0.0310717 0.0784136 0
vt 0.00487721 0.0539293 0
vt 0.474632 0.0784872 0
vt 0.523309 0.172771 0
vt 0.421213 0.506921 0
vt 0.445512 0.506984 0
vt 0.987794 0.949139 0
vt 0.499362 0.94444 0
vt 0.466855 0.503142 0
vt 0.49115 0.503778 0
vt 0.471529 0.412713 0
vt 0.471409 0.387697 0
vt 0.0329124 0.361891 0
vt 0.0335019 0.38723 0
vt 0.471658 0.362686 0
vt 0.0321017 0.260003 0
vt 0.0319578 0.284995 0
vt 0.471917 0.286001 0
vt 0.471836 0.260857 0
vt 0.0320224 0.234842 0
vt 0.471978 0.235848 0
vt 0.0333313 0.129619 0
vt 0.0329915 0.154444 0
vt 0.472483 0.155162 0
vt 0.472378 0.129905 0
vt 0.0333254 0.104426 0
vt 0.472479 0.104732 0
vt 0.0338083 0.412765 0

# 77 vertex normals
vn -0.57735 -0.57735 0.57735
vn -0.707107 -0.707107 -4.32978e-17
vn 0.707107 -0.707107 7.14243e-08
vn 0.57735 -0.57735 0.57735
vn -0.337711 0.87858 0.337711
vn 0.337711 0.87858 0.337711
vn 0.452928 0.889855 0.0548937
vn -0.452928 0.889855 0.0548937
vn -0.659852 0.359433 0.659852
vn 0.659852 0.359433 0.659852
vn 0.946871 0.321556 0.00606576
vn 0.659852 0.359433 -0.659852
vn 0.57735 -0.57735 -0.57735
vn -0.57735 -0.57735 -0.57735
vn -0.659852 0.359433 -0.659852
vn -0.943241 0.332098 -0.00284493
vn 0.337711 0.87858 -0.337711
vn -0.337711 0.87858 -0.337711
vn -0.445928 0.892755 -0.0643184
vn 0.707107 -0.707107 -4.32978e-17
vn 0.453067 0.881147 -0.135314
vn 0.445928 0.892755 -0.0643184
vn -0.453067 0.881147 -0.135314
vn 0.943241 0.332098 -0.00284493
vn 0.947745 0.31902 0.0025369
vn -0.707107 -0.707107 -4.32978e-17
vn -0.949476 0.313838 0.000582498
vn -0.947745 0.31902 0.00253691
vn 0.834124 0.551577 -0.000642235
vn -0.474709 0.88014 -0.00202916
vn -0.463257 0.878005 0.120417
vn -0.829821 0.558029 7.55494e-05
vn 0.474709 0.88014 -0.00202917
vn 0.463257 0.878005 0.120417
vn 0.949476 0.313838 0.000582493
vn -0.949146 0.314838 0.000308316
vn -0.460502 0.878723 -0.125633
vn 0.460502 0.878723 -0.125633
vn 0.949146 0.314837 0.000308318
vn 0.837035 0.547149 -0.000182681
vn -0.707107 -0.707107 -4.32978e-17
vn -0.950259 0.311461 -0.000599862
vn -0.47618 0.879344 0.00263709
vn -0.461943 0.878312 0.123196
vn -0.837035 0.547149 -0.000182684
vn 0.707107 -0.707107 -7.60517e-08
vn 0.47618 0.879344 0.00263709
vn 0.461944 0.878311 0.123196
vn 0.950259 0.311461 -0.000599912
vn -0.951653 0.307175 0.000361978
vn -0.837583 0.54631 -0.000543977
vn -0.464048 0.878453 -0.113924
vn 0.707107 -0.707106 -4.62744e-09
vn 0.464048 0.878453 -0.113924
vn 0.951653 0.307176 0.000361981
vn 0.841259 0.540632 -0.000758871
vn -0.946871 0.321555 0.0060657
vn -0.466793 0.877769 0.107825
vn 0.466793 0.877769 0.107825
vn 0.499184 0.858979 -0.11389
vn 0.508529 0.860934 -0.0137776
vn -0.499866 0.861839 0.0858334
vn -0.508529 0.860934 -0.0137776
vn 0.499865 0.861839 0.0858333
vn -0.509827 0.860274 -0.00211511
vn -0.500024 0.860726 -0.0955377
vn 0.500024 0.860726 -0.0955376
vn 0.509827 0.860275 -0.00211511
vn -0.500122 0.861136 0.0912289
vn 0.500122 0.861136 0.0912288
vn -0.508993 0.860758 -0.00476023
vn -0.501093 0.861404 -0.0829947
vn 0.501093 0.861405 -0.0829946
vn 0.508993 0.860758 -0.00476016
vn -0.501279 0.862174 0.0733198
vn 0.501279 0.862174 0.0733198
vn -0.499184 0.858979 -0.11389

# Mesh 'Box001_Box001' with 156 faces
g Box001_Box001
usemtl DefaultMaterial
f 1/1/1 2/2/2 3/3/3
f 3/3/3 4/4/4 1/1/1
f 5/5/5 6/6/6 7/7/7
f 7/7/7 8/8/8 5/5/5
f 9/9/9 1/10/1 4/11/4
f 4/11/4 10/12/10 9/9/9
f 4/13/4 3/14/3 11/15/11
f 11/15/11 10/16/10 4/13/4
f 12/17/12 13/18/13 14/19/14
f 14/19/14 15/20/15 12/17/12
f 14/21/14 16/22/2 17/23/16
f 17/23/16 15/24/15 14/21/14
f 5/5/5 9/25/9 10/26/10
f 10/26/10 6/6/6 5/5/5
f 10/26/10 11/27/11 7/7/7
f 7/7/7 6/6/6 10/26/10
f 18/28/17 12/29/12 15/30/15
f 15/30/15 19/31/18 18/28/17
f 15/30/15 17/32/16 20/33/19
f 20/33/19 19/31/18 15/30/15
f 21/34/2 16/35/2 22/36/20
f 22/36/20 23/37/20 21/34/2
f 24/38/21 25/39/22 20/33/19
f 20/33/19 26/40/23 24/38/21
f 23/41/20 22/42/20 27/43/24
f 27/43/24 28/44/25 23/41/20
f 21/45/2 29/46/26 30/47/27
f 30/47/27 31/48/28 21/45/2
f 25/39/22 24/38/21 28/49/29
f 28/49/29 27/50/24 25/39/22
f 32/51/30 33/52/31 34/53/32
f 34/53/32 31/54/28 30/55/27
f 34/53/32 30/55/27 32/51/30
f 29/56/26 21/34/2 23/37/20
f 23/37/20 35/57/20 29/56/26
f 36/58/33 37/59/34 33/52/31
f 33/52/31 32/51/30 36/58/33
f 35/60/20 23/41/20 28/44/25
f 28/44/25 38/61/35 35/60/20
f 36/58/33 38/62/35 28/63/25
f 28/63/25 37/59/34 36/58/33
f 29/46/26 39/64/26 40/65/36
f 40/65/36 30/47/27 29/46/26
f 32/51/30 30/55/27 40/66/36
f 40/66/36 41/67/37 32/51/30
f 39/68/26 29/56/26 35/57/20
f 35/57/20 42/69/20 39/68/26
f 43/70/38 36/58/33 32/51/30
f 32/51/30 41/67/37 43/70/38
f 42/71/20 35/60/20 38/61/35
f 38/61/35 44/72/39 42/71/20
f 36/58/33 43/70/38 44/73/40
f 44/73/40 38/62/35 36/58/33
f 39/64/26 45/74/41 46/75/42
f 46/75/42 40/65/36 39/64/26
f 47/76/43 48/77/44 40/78/45
f 40/78/45 46/79/42 47/76/43
f 45/80/41 39/68/26 42/69/20
f 42/69/20 49/81/46 45/80/41
f 50/82/47 51/83/48 48/77/44
f 48/77/44 47/76/43 50/82/47
f 49/84/46 42/71/20 44/72/39
f 44/72/39 52/85/49 49/84/46
f 50/82/47 52/86/49 44/87/39
f 44/87/39 51/83/48 50/82/47
f 45/74/41 53/88/41 54/89/50
f 54/89/50 46/75/42 45/74/41
f 47/76/43 46/79/42 54/90/50
f 54/90/50 55/91/51 56/92/52
f 54/90/50 56/92/52 47/76/43
f 53/93/41 45/80/41 49/81/46
f 49/81/46 57/94/53 53/93/41
f 58/95/54 50/82/47 47/76/43
f 47/76/43 56/92/52 58/95/54
f 57/96/53 49/84/46 52/85/49
f 52/85/49 59/97/55 57/96/53
f 50/82/47 58/95/54 59/98/56
f 59/98/56 52/86/49 50/82/47
f 53/88/41 2/99/2 60/100/57
f 60/100/57 54/89/50 53/88/41
f 8/8/8 61/101/58 55/91/51
f 8/8/8 55/91/51 54/90/50
f 54/90/50 60/102/57 8/8/8
f 2/2/2 53/93/41 57/94/53
f 57/94/53 3/3/3 2/2/2
f 7/7/7 62/103/59 61/101/58
f 61/101/58 8/8/8 7/7/7
f 3/14/3 57/96/53 59/97/55
f 59/97/55 11/15/11 3/14/3
f 7/7/7 11/27/11 59/104/55
f 59/104/55 62/103/59 7/7/7
f 2/99/2 1/105/1 9/106/9
f 9/106/9 60/100/57 2/99/2
f 8/8/8 60/102/57 9/25/9
f 9/25/9 5/5/5 8/8/8
f 16/22/2 21/45/2 31/48/28
f 31/48/28 17/23/16 16/22/2
f 20/33/19 17/32/16 31/54/28
f 20/33/19 31/54/28 34/53/32
f 34/53/32 26/40/23 20/33/19
f 16/35/2 14/107/14 13/108/13
f 13/108/13 22/36/20 16/35/2
f 25/39/22 18/28/17 19/31/18
f 19/31/18 20/33/19 25/39/22
f 22/42/20 13/109/13 12/110/12
f 12/110/12 27/43/24 22/42/20
f 25/39/22 27/50/24 12/29/12
f 12/29/12 18/28/17 25/39/22
f 24/38/21 63/111/60 64/112/61
f 64/112/61 28/49/29 24/38/21
f 33/52/31 65/113/62 66/114/63
f 66/114/63 34/53/32 33/52/31
f 37/59/34 28/49/29 64/112/61
f 64/112/61 67/115/64 37/59/34
f 41/67/37 40/78/45 68/116/65
f 68/116/65 69/117/66 41/67/37
f 43/70/38 70/118/67 71/119/68
f 71/119/68 44/73/40 43/70/38
f 48/77/44 72/120/69 68/116/65
f 68/116/65 40/78/45 48/77/44
f 51/83/48 44/73/40 71/119/68
f 71/119/68 73/121/70 51/83/48
f 56/92/52 55/91/51 74/122/71
f 74/122/71 75/123/72 56/92/52
f 58/95/54 76/124/73 77/125/74
f 77/125/74 59/98/56 58/95/54
f 61/101/58 78/126/75 74/122/71
f 74/122/71 55/91/51 61/101/58
f 62/103/59 59/98/56 77/125/74
f 77/125/74 79/127/76 62/103/59
f 26/40/23 34/53/32 66/114/63
f 66/114/63 80/128/77 26/40/23
f 63/111/60 24/38/21 26/40/23
f 26/40/23 80/128/77 63/111/60
f 64/112/61 63/111/60 80/128/77
f 80/128/77 66/114/63 64/112/61
f 65/113/62 33/52/31 37/59/34
f 37/59/34 67/115/64 65/113/62
f 66/114/63 65/113/62 67/115/64
f 67/115/64 64/112/61 66/114/63
f 70/118/67 43/70/38 41/67/37
f 41/67/37 69/117/66 70/118/67
f 71/119/68 70/118/67 69/117/66
f 69/117/66 68/116/65 71/119/68
f 72/120/69 48/77/44 51/83/48
f 51/83/48 73/121/70 72/120/69
f 68/116/65 72/120/69 73/121/70
f 73/121/70 71/119/68 68/116/65
f 76/124/73 58/95/54 56/92/52
f 56/92/52 75/123/72 76/124/73
f 77/125/74 76/124/73 75/123/72
f 75/123/72 74/122/71 77/125/74
f 78/126/75 61/101/58 62/103/59
f 62/103/59 79/127/76 78/126/75
f 74/122/71 78/126/75 79/127/76
f 79/127/76 77/125/74 74/122/71

